<svg xmlns="http://www.w3.org/2000/svg" width="30" height="30" viewBox="0 0 30 30">
  <defs>
    <style>
      .cls-1 {
        fill: #0083ff;
        fill-rule: evenodd;
      }
    </style>
  </defs>
  <path id="_" data-name="@" class="cls-1" d="M1289.87,252a13.211,13.211,0,0,0-6.61,1.666,12,12,0,0,0-4.6,4.564,12.7,12.7,0,0,0-1.66,6.447,8.45,8.45,0,0,0,1.11,4.371,7.509,7.509,0,0,0,3.15,2.909,10.431,10.431,0,0,0,4.75,1.027,13.141,13.141,0,0,0,5.12-.966l-0.49-2.222a9.566,9.566,0,0,1-4.14.845,7.281,7.281,0,0,1-5.06-1.617,5.94,5.94,0,0,1-1.78-4.613,10.431,10.431,0,0,1,1.28-5.131,9.457,9.457,0,0,1,3.52-3.646,9.706,9.706,0,0,1,5.04-1.34,7.339,7.339,0,0,1,5.07,1.606,5.745,5.745,0,0,1,1.79,4.527,10.373,10.373,0,0,1-.3,2.463,5.75,5.75,0,0,1-.9,2.053,1.745,1.745,0,0,1-1.46.821,1.031,1.031,0,0,1-.83-0.29,1.339,1.339,0,0,1-.24-0.869,5.234,5.234,0,0,1,.07-0.846l1.14-6.519h-2.83l-0.22,1.255a2.951,2.951,0,0,0-2.86-1.448,5.05,5.05,0,0,0-3.01.953,6.445,6.445,0,0,0-2.08,2.524,7.737,7.737,0,0,0-.75,3.38,4.169,4.169,0,0,0,1.04,3.007,3.781,3.781,0,0,0,2.88,1.1,5.269,5.269,0,0,0,2.35-.543,4.871,4.871,0,0,0,1.82-1.485,2.345,2.345,0,0,0,1,1.485,3.564,3.564,0,0,0,2.03.519,4.686,4.686,0,0,0,3.1-1.086,6.817,6.817,0,0,0,2-2.85,10.179,10.179,0,0,0,.7-3.743,8.4,8.4,0,0,0-1.11-4.346,7.434,7.434,0,0,0-3.16-2.922,10.7,10.7,0,0,0-4.87-1.038h0Zm-2.79,13.5a1.771,1.771,0,0,1-1.45-.579,2.338,2.338,0,0,1-.49-1.57,4.585,4.585,0,0,1,.38-1.835,3.608,3.608,0,0,1,1.05-1.413,2.452,2.452,0,0,1,1.58-.543,1.964,1.964,0,0,1,1.55.628,2.389,2.389,0,0,1,.56,1.642,4.024,4.024,0,0,1-.43,1.811,3.577,3.577,0,0,1-1.15,1.352,2.753,2.753,0,0,1-1.6.507h0Z" transform="translate(-1273 -247.5)"/>
</svg>
