<svg id="a" xmlns="http://www.w3.org/2000/svg" width="91.44" height="16" viewBox="0 0 91.44 16">
  <defs>
    <style>
      .cls-1 {
        fill: #0083ff;
      }

      .cls-1, .cls-2 {
        fill-rule: evenodd;
      }

      .cls-2 {
        fill: #0b88ff;
      }
    </style>
  </defs>
  <path id="Add_New" data-name="Add New" class="cls-1" d="M1008.21,142.475h1.9l-3.23-9.087h-2.09l-3.24,9.087h1.9l0.59-1.729h3.58Zm-3.68-3.185,1.3-3.8,1.3,3.8h-2.6Zm6.32-.442a4.235,4.235,0,0,0,.43,1.956,3.254,3.254,0,0,0,1.18,1.32,3.031,3.031,0,0,0,1.65.468,2.928,2.928,0,0,0,1.4-.325,2.533,2.533,0,0,0,.94-0.858v1.066h1.83v-9.62h-1.83v3.419a2.682,2.682,0,0,0-1.01-.812,2.985,2.985,0,0,0-1.32-.306,3.133,3.133,0,0,0-1.66.455,3.172,3.172,0,0,0-1.18,1.3,4.17,4.17,0,0,0-.43,1.937h0Zm5.61,0.026a2.376,2.376,0,0,1-.26,1.138,1.807,1.807,0,0,1-.69.727,1.843,1.843,0,0,1-.94.254,1.751,1.751,0,0,1-.92-0.26,1.937,1.937,0,0,1-.7-0.747,2.425,2.425,0,0,1-.26-1.138,2.348,2.348,0,0,1,.26-1.125,1.911,1.911,0,0,1,.69-0.721,1.8,1.8,0,0,1,.93-0.247,1.853,1.853,0,0,1,.94.254,1.81,1.81,0,0,1,.69.728,2.369,2.369,0,0,1,.26,1.137h0Zm3.1-.026a4.365,4.365,0,0,0,.43,1.956,3.254,3.254,0,0,0,1.18,1.32,3.056,3.056,0,0,0,1.65.468,2.9,2.9,0,0,0,1.4-.325,2.389,2.389,0,0,0,.94-0.858v1.066h1.83v-9.62h-1.83v3.419a2.647,2.647,0,0,0-1-.812,3,3,0,0,0-1.33-.306,3.133,3.133,0,0,0-1.66.455,3.172,3.172,0,0,0-1.18,1.3,4.3,4.3,0,0,0-.43,1.937h0Zm5.62,0.026a2.376,2.376,0,0,1-.26,1.138,1.857,1.857,0,0,1-1.64.981,1.777,1.777,0,0,1-.92-0.26,1.914,1.914,0,0,1-.69-0.747,2.313,2.313,0,0,1-.27-1.138,2.241,2.241,0,0,1,.27-1.125,1.812,1.812,0,0,1,1.61-.968,1.856,1.856,0,0,1,1.64.982,2.369,2.369,0,0,1,.26,1.137h0Zm14.3-5.486h-1.81v6.24l-4.08-6.24h-1.8v9.087h1.8v-6.227l4.08,6.227h1.81v-9.087Zm8.39,5.33a3.789,3.789,0,0,0-.45-1.866,3.081,3.081,0,0,0-1.24-1.254,4.019,4.019,0,0,0-3.69.013,3.159,3.159,0,0,0-1.26,1.3,4.478,4.478,0,0,0,0,3.913,3.245,3.245,0,0,0,1.28,1.306,3.665,3.665,0,0,0,1.84.462,3.423,3.423,0,0,0,2.15-.67,3.276,3.276,0,0,0,1.19-1.709h-1.94a1.477,1.477,0,0,1-1.43.871,1.67,1.67,0,0,1-1.18-.442,1.866,1.866,0,0,1-.54-1.222h5.22a4.9,4.9,0,0,0,.05-0.7h0Zm-5.25-.52a1.792,1.792,0,0,1,.56-1.138,1.613,1.613,0,0,1,1.12-.409,1.767,1.767,0,0,1,1.2.423,1.438,1.438,0,0,1,.5,1.124h-3.38Zm14.71-2.925-1.26,5.473-1.34-5.473h-1.91l-1.36,5.486-1.26-5.486h-1.83l2.1,7.2h1.96l1.3-5.031,1.3,5.031h1.94l2.09-7.2h-1.73Z" transform="translate(-1001.56 -131)"/>
  <path id="Shape_391_1" data-name="Shape 391 1" class="cls-2" d="M1092.38,142.429h-3.36a0.619,0.619,0,0,0-.62.616v3.339a0.62,0.62,0,0,1-.62.616h-1.06a0.62,0.62,0,0,1-.62-0.616v-3.339a0.619,0.619,0,0,0-.62-0.616h-3.36a0.62,0.62,0,0,1-.62-0.617v-1.053a0.62,0.62,0,0,1,.62-0.616h3.36a0.62,0.62,0,0,0,.62-0.616v-3.34a0.62,0.62,0,0,1,.62-0.616h1.06a0.62,0.62,0,0,1,.62.616v3.34a0.62,0.62,0,0,0,.62.616h3.36a0.62,0.62,0,0,1,.62.616v1.053A0.62,0.62,0,0,1,1092.38,142.429Zm-9.2-4.572h-12.56a0.62,0.62,0,0,1-.62-0.616v-1.054a0.62,0.62,0,0,1,.62-0.616h12.56a0.62,0.62,0,0,1,.62.616v1.054A0.62,0.62,0,0,1,1083.18,137.857Zm0-4.571h-12.56a0.62,0.62,0,0,1-.62-0.616v-1.054a0.62,0.62,0,0,1,.62-0.616h12.56a0.62,0.62,0,0,1,.62.616v1.054A0.62,0.62,0,0,1,1083.18,133.286Zm-12.56,6.857h7.96a0.62,0.62,0,0,1,.62.616v1.053a0.62,0.62,0,0,1-.62.617h-7.96a0.62,0.62,0,0,1-.62-0.617v-1.053A0.62,0.62,0,0,1,1070.62,140.143Z" transform="translate(-1001.56 -131)"/>
</svg>
