<svg xmlns="http://www.w3.org/2000/svg" width="24" height="24" viewBox="0 0 24 24">
  <defs>
    <style>
      .cls-1 {
        fill: #0073e0;
        fill-rule: evenodd;
      }
    </style>
  </defs>
  <path id="attachment" class="cls-1" d="M345.51,257.873a0.853,0.853,0,0,0-.2,0c-0.835,0,.33,0-0.506,0H342.3a0.838,0.838,0,0,0-.937.721,0.829,0.829,0,0,0,.735.919,0.853,0.853,0,0,0,.2,0c1.671,0,1.342,0,3.013,0a0.839,0.839,0,0,0,.938-0.721A0.83,0.83,0,0,0,345.51,257.873Zm5.18,6.573h-8.355a0.836,0.836,0,1,0,0,1.642q2.073-.006,4.14-0.006c1.419,0,2.838,0,4.257,0a0.811,0.811,0,0,0,.891-0.94A0.836,0.836,0,0,0,350.69,264.446Zm-3.057-2.465a0.809,0.809,0,0,0-.795-0.826,0.786,0.786,0,0,0-.1,0c-1.41-.007.185,0-1.222,0s-1.838-.007-3.257,0a0.824,0.824,0,0,0-.9.732,0.834,0.834,0,0,0,.853.906h4.564a0.8,0.8,0,0,0,.857-0.747C347.633,262.025,347.634,262,347.633,261.981Zm6.538-.116a0.853,0.853,0,0,0-.86.989v4.673a1.663,1.663,0,0,1-1.485,1.833,1.732,1.732,0,0,1-.374,0h-9.915a1.688,1.688,0,0,1-1.856-1.49,1.668,1.668,0,0,1,0-.316q-0.009-7.06,0-14.119a1.675,1.675,0,0,1,1.541-1.806,1.7,1.7,0,0,1,.319,0h4.468a0.836,0.836,0,1,0-.014-1.643c-0.852,0-3.7,0-4.552,0A3.319,3.319,0,0,0,338,253.177c0,0.063,0,.125,0,0.188-0.019,2.383-.008,4.763-0.008,7.142v6.936a3.336,3.336,0,0,0,3.105,3.564,3.624,3.624,0,0,0,.521,0h9.789a3.325,3.325,0,0,0,3.57-3.045,3.158,3.158,0,0,0,0-.435q0.006-2.34,0-4.678A0.842,0.842,0,0,0,354.171,261.865Zm3.4-3.476q-3.493,1.771-7,3.517a0.686,0.686,0,0,1-1.014-.426q-1.208-2.406-2.4-4.818c-0.342-.686-0.689-1.37-1.025-2.06a0.7,0.7,0,0,1,.287-1.037c1.153-.6,2.317-1.172,3.478-1.753a0.6,0.6,0,0,1,.171-0.015,3.17,3.17,0,0,0-.133,1.326,0.373,0.373,0,0,1-.288.373c-0.569.283-1.131,0.577-1.7,0.85-0.225.107-.3,0.2-0.169,0.456q1.332,2.634,2.635,5.284a0.259,0.259,0,0,0,.426.145q2.622-1.335,5.257-2.646c0.251-.125.28-0.251,0.136-0.462a4.983,4.983,0,0,1-.761-3.389c0.031-.354,0-0.712,0-1.069l0.084,0c0.781,1.568,1.565,3.133,2.339,4.7A0.689,0.689,0,0,1,357.569,258.389Zm-4.9-1.024a2.069,2.069,0,0,1-2.041-1.965c-0.028-.957-0.014-1.915,0-2.872a0.691,0.691,0,1,1,1.379,0c0.01,0.856,0,1.712,0,2.568a0.709,0.709,0,1,0,1.384.018c0-1.074,0-2.147,0-3.221a1.416,1.416,0,0,0-1.5-1.492c-0.733,0-1.465,0-2.255,0a2.714,2.714,0,0,1,3.047-1.307,2.741,2.741,0,0,1,2.08,2.489c0.039,1.276.036,2.554,0,3.829A2.06,2.06,0,0,1,352.668,257.365Z" transform="translate(-335.985 -248.016)"/>
</svg>
