<svg xmlns="http://www.w3.org/2000/svg" width="30" height="30" viewBox="0 0 30 30">
  <defs>
    <style>
      .cls-1 {
        fill: #0073e0;
        fill-rule: evenodd;
      }
    </style>
  </defs>
  <path id="bloodgroup" class="cls-1" d="M1683.68,287.533c-0.94,1.528-1.85,2.985-2.74,4.447-1.08,1.767-2.19,3.522-3.23,5.311-2.36,4.026-.29,9.606,4.3,10.736a6.919,6.919,0,0,0,7.72-3.445c0.06-.11.1-0.226,0.17-0.332a0.8,0.8,0,0,1,1.14-.411,0.841,0.841,0,0,1,.36,1.224,8.093,8.093,0,0,1-5.61,4.649,8.226,8.226,0,0,1-7.24-1.453,8.738,8.738,0,0,1-3.35-5.381,9.776,9.776,0,0,1,1.59-7.491c1.97-3.086,3.85-6.226,5.76-9.343a0.535,0.535,0,0,0,.05-0.116c0.63-1.144,1.42-1.327,2.17,0,0.9,1.6,1.91,3.139,2.86,4.72a0.867,0.867,0,0,1-.36,1.387,0.879,0.879,0,0,1-1.15-.568c-0.69-1.1-1.36-2.208-2.04-3.313C1683.98,287.975,1683.86,287.8,1683.68,287.533Zm-5.2,13.854a0.975,0.975,0,0,1,.49-1.149,0.721,0.721,0,0,1,.86.128,1.29,1.29,0,0,1,.38.973,3.47,3.47,0,0,0,3.37,3.281,0.9,0.9,0,0,1,.96.919,0.879,0.879,0,0,1-1.01.863,5.3,5.3,0,0,1-4.94-4.057A1.683,1.683,0,0,1,1678.48,301.387Zm17.48-5.716a0.858,0.858,0,0,0-.94-0.881,2.923,2.923,0,0,1-1.52-.075c-0.37-.3-0.1-1.028-0.14-1.567a0.969,0.969,0,0,0-1.13-1.038c-1.02,0-2.05,0-3.07,0a0.913,0.913,0,0,0-1.04,1.028,3.072,3.072,0,0,1-.08,1.54c-0.28.347-.98,0.068-1.5,0.111-0.02,0-.04,0-0.06,0a0.9,0.9,0,0,0-.99,1.007v3.317a0.919,0.919,0,0,0,1.03,1.041c0.51,0.016,1.19-.224,1.51.09s0.08,1,.09,1.53a0.935,0.935,0,0,0,1.07,1.057c1.01,0,2.01,0,3.01,0a1,1,0,0,0,1.16-1.141c0.03-.5-0.23-1.182.11-1.45a2.863,2.863,0,0,1,1.46-.089,0.888,0.888,0,0,0,1.04-.913C1696.02,298.052,1696.01,296.86,1695.96,295.671Zm-1.68,2.267c0,0.318-.06.46-0.41,0.434a13,13,0,0,0-1.31,0,0.885,0.885,0,0,0-.92.951v0.7c0,1.026,0,.982-1,1.041-0.65.039-.9-0.144-0.8-0.815a3.809,3.809,0,0,0-.01-0.954,0.916,0.916,0,0,0-1.03-.927,4.927,4.927,0,0,1-.57,0c-0.33-.045-0.86.191-0.97-0.127a4.5,4.5,0,0,1-.03-1.515c0-.18.18-0.137,0.29-0.139,0.4,0,.79,0,1.19,0a0.968,0.968,0,0,0,1.13-1.1,10.99,10.99,0,0,0,0-1.148c-0.02-.313.05-0.493,0.4-0.436a1.605,1.605,0,0,0,.25,0c1.15,0,1.15,0,1.15,1.132v0.638a0.852,0.852,0,0,0,.84.906,3.08,3.08,0,0,0,.5,0C1694.32,296.578,1694.31,296.577,1694.28,297.938Z" transform="translate(-1670.515 -282.5)"/>
</svg>
