<svg xmlns="http://www.w3.org/2000/svg" width="17" height="17" viewBox="0 0 17 17">
  <defs>
    <style>
      .cls-1 {
        fill: #0073df;
        fill-rule: evenodd;
      }
    </style>
  </defs>
  <path id="Shape_369_2" data-name="Shape 369 2" class="cls-1" d="M824.377,558.378a2.126,2.126,0,0,1-1.5.622h-12.75A2.124,2.124,0,0,1,808,556.875V546.25a2.124,2.124,0,0,1,2.125-2.125h0.708a2.125,2.125,0,1,1,4.25,0h2.834a2.125,2.125,0,1,1,4.249,0h0.709A2.124,2.124,0,0,1,825,546.25v10.625A2.124,2.124,0,0,1,824.377,558.378Zm-0.794-12.128a0.707,0.707,0,0,0-.708-0.708h-1.417a0.708,0.708,0,0,1-.708-0.709v-0.708a0.709,0.709,0,1,0-1.417,0v1.417a0.707,0.707,0,0,0,.708.708,0.709,0.709,0,0,1,0,1.417,2.125,2.125,0,0,1-2.124-2.125h-3.542a0.71,0.71,0,0,1-.709-0.709v-0.708a0.709,0.709,0,0,0-1.417,0v1.417a0.708,0.708,0,0,0,.709.708,0.709,0.709,0,0,1,0,1.417,2.125,2.125,0,0,1-2.125-2.125h-0.708a0.708,0.708,0,0,0-.709.708v2.833h14.167V546.25Zm0,4.25H809.416v6.375a0.708,0.708,0,0,0,.709.708h12.75a0.707,0.707,0,0,0,.708-0.708V550.5Zm-2.833,5.667a0.709,0.709,0,1,1,.708-0.709A0.71,0.71,0,0,1,820.75,556.167Zm0-2.834a0.708,0.708,0,1,1,.708-0.708A0.709,0.709,0,0,1,820.75,553.333Zm-4.25,2.834a0.709,0.709,0,1,1,.708-0.709A0.709,0.709,0,0,1,816.5,556.167Zm0-2.834a0.708,0.708,0,1,1,.708-0.708A0.708,0.708,0,0,1,816.5,553.333Zm-4.251,2.834a0.709,0.709,0,1,1,.709-0.709A0.709,0.709,0,0,1,812.249,556.167Zm0-2.834a0.708,0.708,0,1,1,.709-0.708A0.708,0.708,0,0,1,812.249,553.333Z" transform="translate(-808 -542)"/>
</svg>
