<svg xmlns="http://www.w3.org/2000/svg" width="16.294" height="16.294" viewBox="0 0 16.294 16.294">
  <path id="calendar" d="M90.255,90.527a2.036,2.036,0,0,1-1.44.6H76.594a2.036,2.036,0,0,1-2.037-2.037V78.9a2.037,2.037,0,0,1,2.037-2.037h.679a2.037,2.037,0,0,1,4.074,0h2.716a2.037,2.037,0,1,1,4.073,0h.679A2.037,2.037,0,0,1,90.851,78.9V89.087A2.038,2.038,0,0,1,90.255,90.527ZM89.493,78.9a.679.679,0,0,0-.679-.679H87.457a.679.679,0,0,1-.679-.679v-.679a.679.679,0,1,0-1.358,0v1.358a.679.679,0,0,0,.679.679.679.679,0,1,1,0,1.358,2.037,2.037,0,0,1-2.036-2.037H80.667a.679.679,0,0,1-.679-.679v-.679a.679.679,0,0,0-1.358,0v1.358a.679.679,0,0,0,.679.679.679.679,0,0,1,0,1.358,2.037,2.037,0,0,1-2.037-2.037h-.679a.679.679,0,0,0-.679.679v2.716H89.493Zm0,4.074H75.915v6.11a.679.679,0,0,0,.679.679H88.815a.679.679,0,0,0,.679-.679Zm-2.716,5.432a.679.679,0,1,1,.679-.679A.679.679,0,0,1,86.778,88.408Zm0-2.716a.679.679,0,1,1,.679-.679A.679.679,0,0,1,86.778,85.692ZM82.7,88.408a.679.679,0,1,1,.679-.679A.679.679,0,0,1,82.7,88.408Zm0-2.716a.679.679,0,1,1,.679-.679A.679.679,0,0,1,82.7,85.692ZM78.63,88.408a.679.679,0,1,1,.679-.679A.679.679,0,0,1,78.63,88.408Zm0-2.716a.679.679,0,1,1,.679-.679A.679.679,0,0,1,78.63,85.692Z" transform="translate(-74.557 -74.829)" fill="#1f6ee5" fill-rule="evenodd"/>
</svg>
