<svg xmlns="http://www.w3.org/2000/svg" width="17" height="17" viewBox="0 0 17 17">
  <defs>
    <style>
      .cls-1 {
        fill: #b2b2b2;
        fill-rule: evenodd;
      }
    </style>
  </defs>
  <path id="Shape_369_2_copy" data-name="Shape 369 2 copy" class="cls-1" d="M1043.38,601.378a2.135,2.135,0,0,1-1.51.622h-12.75a2.12,2.12,0,0,1-2.12-2.125V589.25a2.12,2.12,0,0,1,2.12-2.125h0.71a2.127,2.127,0,0,1,.63-1.5,2.1,2.1,0,0,1,1.5-.622,2.12,2.12,0,0,1,2.12,2.125h2.84a2.12,2.12,0,0,1,2.12-2.125,2.1,2.1,0,0,1,1.5.622,2.127,2.127,0,0,1,.63,1.5h0.7a2.12,2.12,0,0,1,2.13,2.125v10.625A2.118,2.118,0,0,1,1043.38,601.378Zm-0.8-12.128a0.714,0.714,0,0,0-.2-0.5,0.738,0.738,0,0,0-.51-0.207h-1.41a0.7,0.7,0,0,1-.5-0.208,0.682,0.682,0,0,1-.21-0.5v-0.708a0.682,0.682,0,0,0-.21-0.5,0.707,0.707,0,0,0-1,0,0.723,0.723,0,0,0-.21.5v1.417a0.725,0.725,0,0,0,.21.5,0.7,0.7,0,0,0,.5.207,0.7,0.7,0,0,1,.5.207,0.7,0.7,0,0,1,0,1,0.7,0.7,0,0,1-.5.208,2.122,2.122,0,0,1-2.12-2.125h-3.55a0.733,0.733,0,0,1-.5-0.208,0.714,0.714,0,0,1-.2-0.5v-0.708a0.723,0.723,0,0,0-.21-0.5,0.707,0.707,0,0,0-1,0,0.682,0.682,0,0,0-.21.5v1.417a0.684,0.684,0,0,0,.21.5,0.7,0.7,0,0,0,.5.207,0.7,0.7,0,0,1,.5.207,0.7,0.7,0,0,1,0,1,0.7,0.7,0,0,1-.5.208,2.092,2.092,0,0,1-1.5-.623,2.125,2.125,0,0,1-.63-1.5h-0.71a0.732,0.732,0,0,0-.5.207,0.714,0.714,0,0,0-.2.5v2.833h14.16V589.25Zm0,4.25h-14.16v6.375a0.714,0.714,0,0,0,.2.5,0.732,0.732,0,0,0,.5.207h12.75a0.738,0.738,0,0,0,.51-0.207,0.714,0.714,0,0,0,.2-0.5V593.5Zm-2.83,5.667a0.709,0.709,0,1,1,.71-0.709A0.711,0.711,0,0,1,1039.75,599.167Zm0-2.834a0.708,0.708,0,1,1,.71-0.708A0.71,0.71,0,0,1,1039.75,596.333Zm-4.25,2.834a0.709,0.709,0,1,1,.71-0.709A0.711,0.711,0,0,1,1035.5,599.167Zm0-2.834a0.708,0.708,0,1,1,.71-0.708A0.71,0.71,0,0,1,1035.5,596.333Zm-4.25,2.834a0.709,0.709,0,1,1,.71-0.709A0.711,0.711,0,0,1,1031.25,599.167Zm0-2.834a0.708,0.708,0,1,1,.71-0.708A0.71,0.71,0,0,1,1031.25,596.333Z" transform="translate(-1027 -585)"/>
</svg>
