<svg xmlns="http://www.w3.org/2000/svg" width="30" height="30" viewBox="0 0 30 30">
  <defs>
    <style>
      .cls-1 {
        fill: #0073e0;
        fill-rule: evenodd;
      }
    </style>
  </defs>
  <path id="contactPersonName" class="cls-1" d="M218.944,367.871a1.049,1.049,0,0,1-1.057-1.042,7.408,7.408,0,0,0-4.834-6.906,1.06,1.06,0,0,1-.232-0.051,7.669,7.669,0,0,0-2.5-.415h-1.6a7.636,7.636,0,0,0-2.075.292c-0.1.029-.2,0.055-0.3,0.089a7.508,7.508,0,0,0-5.212,7.107,1.068,1.068,0,0,1-2.136,0,9.655,9.655,0,0,1,8.952-9.559c0.128-.011.257-0.013,0.386-0.019s0.254-.019.383-0.019h1.667c0.1,0,.19.011,0.285,0.014,0.176,0.006.352,0.011,0.526,0.026,0.216,0.018.429,0.048,0.641,0.08L212,357.492c0.251,0.042.5,0.095,0.743,0.156h0A9.516,9.516,0,0,1,220,366.829,1.049,1.049,0,0,1,218.944,367.871Zm-9.529-12.633a7.12,7.12,0,1,1,7.211-7.119A7.172,7.172,0,0,1,209.415,355.238Zm0-12.129a5.01,5.01,0,1,0,5.074,5.01A5.048,5.048,0,0,0,209.415,343.109Z" transform="translate(-194.5 -339.5)"/>
</svg>
