<svg xmlns="http://www.w3.org/2000/svg" width="15.254" height="15.255" viewBox="0 0 15.254 15.255">
  <path id="crates" d="M586.173,298.909a1.907,1.907,0,0,1-1.907,1.907H572.826a1.906,1.906,0,0,1-1.907-1.907V294.46a1.878,1.878,0,0,0,0-2.543v-4.449a1.906,1.906,0,0,1,1.907-1.907h11.441a1.907,1.907,0,0,1,1.907,1.907v4.449a1.878,1.878,0,0,0,0,2.543ZM584.9,287.468a.636.636,0,0,0-.636-.635H572.826a.636.636,0,0,0-.636.635v4.449a.636.636,0,0,0,.636.636h11.441a.636.636,0,0,0,.636-.636Zm0,6.992a.636.636,0,0,0-.636-.636H572.826a.636.636,0,0,0-.636.636v4.449a.636.636,0,0,0,.636.636h11.441a.636.636,0,0,0,.636-.636Zm-5.721,3.178H577.91A1.906,1.906,0,0,1,576,295.731a.636.636,0,1,1,1.271,0,.635.635,0,0,0,.635.636h1.271a.636.636,0,0,0,.636-.636.636.636,0,0,1,1.271,0,1.906,1.906,0,0,1-1.907,1.907Zm0-6.992H577.91A1.906,1.906,0,0,1,576,288.739a.636.636,0,1,1,1.271,0,.635.635,0,0,0,.635.635h1.271a.635.635,0,0,0,.636-.635.636.636,0,0,1,1.271,0,1.907,1.907,0,0,1-1.907,1.907Z" transform="translate(-570.919 -285.561)" fill="#fff" fill-rule="evenodd"/>
</svg>
