<svg xmlns="http://www.w3.org/2000/svg" viewBox="0 0 90 53"><g id="Layer_2" data-name="Layer 2"><g id="Layer_1-2" data-name="Layer 1"><path d="M85.91,53H57.27a4.09,4.09,0,0,1-4.09-4.08V40.77a4.09,4.09,0,0,1,4.09-4.08H73.64V28.54H16.36v8.15H36.82a4.09,4.09,0,0,1,4.09,4.08v8.15A4.09,4.09,0,0,1,36.82,53H4.09A4.09,4.09,0,0,1,0,48.92V40.77a4.09,4.09,0,0,1,4.09-4.08h8.18V24.46H45V16.31H32.73a4.09,4.09,0,0,1-4.09-4.08V4.08A4.09,4.09,0,0,1,32.73,0H61.36a4.09,4.09,0,0,1,4.09,4.08v8.15a4.09,4.09,0,0,1-4.09,4.08H49.09v8.15H77.73V36.69h8.18A4.09,4.09,0,0,1,90,40.77v8.15A4.09,4.09,0,0,1,85.91,53Z" style="fill:#0073e0;fill-rule:evenodd"/></g></g></svg>