<?xml version="1.0" encoding="utf-8"?>
<!-- Generator: Adobe Illustrator 25.0.1, SVG Export Plug-In . SVG Version: 6.00 Build 0)  -->
<svg version="1.1" id="createDiscount" xmlns="http://www.w3.org/2000/svg" xmlns:xlink="http://www.w3.org/1999/xlink" x="0px"
	 y="0px" viewBox="0 0 137.2 19" style="enable-background:new 0 0 137.2 19;" xml:space="preserve">
<style type="text/css">
	.st0{fill-rule:evenodd;clip-rule:evenodd;fill:#0073DF;}
	.st1{fill-rule:evenodd;clip-rule:evenodd;fill:#0083FF;}
	.st2{fill:#0083FF;}
</style>
<path class="st0" d="M126.6,8.3c0.2-0.2,0.2-0.6,0-0.8s-0.6-0.2-0.8,0c-0.2,0.2-0.2,0.6,0,0.8c0,0,0,0,0,0
	C126,8.5,126.4,8.5,126.6,8.3C126.6,8.3,126.6,8.3,126.6,8.3z M126.4,13c-0.2,0.2-0.2,0.6,0,0.8c0,0,0,0,0,0c0.2,0.2,0.6,0.2,0.8,0
	c0.2-0.2,0.2-0.6,0-0.8C127,12.8,126.6,12.8,126.4,13C126.4,13,126.4,13,126.4,13z M137,0.2c-0.2-0.2-0.6-0.2-0.8,0l-1.6,1.6
	c-0.1,0-0.2-0.1-0.3-0.1l-5-1.2c-0.6-0.1-1.2,0-1.6,0.4l-9,9c-0.7,0.7-0.7,1.7,0,2.4l6.3,6.3c0.7,0.7,1.7,0.7,2.4,0l9-9
	c0.4-0.4,0.6-1,0.4-1.6l-1.2-5c0-0.1-0.1-0.2-0.1-0.3L137,1C137.2,0.7,137.2,0.4,137,0.2L137,0.2z M125.1,6.6
	c0.7-0.6,1.7-0.6,2.4,0.1s0.6,1.7-0.1,2.4c-0.7,0.6-1.7,0.6-2.4-0.1C124.4,8.3,124.4,7.3,125.1,6.6L125.1,6.6z M127.9,14.6
	c-0.7,0.6-1.7,0.6-2.4-0.1s-0.6-1.7,0.1-2.4c0.7-0.6,1.7-0.6,2.4,0.1C128.6,13,128.6,14,127.9,14.6L127.9,14.6z M130.1,11l-7.1,0.4
	c0,0,0,0-0.1,0c-0.3,0-0.5-0.3-0.5-0.6c0-0.3,0.2-0.5,0.5-0.5l7.1-0.4c0.3,0,0.6,0.3,0.6,0.6C130.6,10.7,130.4,10.9,130.1,11
	L130.1,11z M133.7,4.8c-0.4,0.4-1,0.4-1.3,0c-0.4-0.4-0.4-1,0-1.3l0,0c0.2-0.2,0.4-0.3,0.7-0.3c0.3,0,0.5,0.1,0.7,0.3l0,0
	C134,3.8,134,4.4,133.7,4.8L133.7,4.8z"/>
<g>
	<path id="Create_Discount_1_" class="st1" d="M0.1,8.8c0,0.9,0.2,1.8,0.7,2.6c0.4,0.8,1.1,1.4,1.8,1.8C4.3,14.2,6.4,14.1,8,13
		c0.8-0.6,1.4-1.4,1.7-2.4H7.5c-0.2,0.4-0.5,0.8-1,1.1c-0.4,0.3-0.9,0.4-1.4,0.4c-0.5,0-1.1-0.1-1.5-0.4c-0.5-0.3-0.8-0.7-1.1-1.2
		C2,9.4,2,8.1,2.5,7c0.2-0.5,0.6-0.9,1.1-1.2c0.5-0.3,1-0.4,1.5-0.4c0.5,0,1,0.1,1.4,0.4c0.4,0.3,0.8,0.6,1,1.1h2.3
		C9.5,5.9,8.9,5.1,8,4.5C7.2,3.9,6.2,3.6,5.1,3.6c-0.9,0-1.8,0.2-2.6,0.7C1.8,4.7,1.2,5.4,0.7,6.1C0.3,6.9,0.1,7.8,0.1,8.8L0.1,8.8
		L0.1,8.8z M13.5,7.1V5.8h-2v8h2v-4c-0.1-0.6,0.1-1.1,0.5-1.6c0.4-0.3,0.9-0.5,1.4-0.4h0.5V5.7c-0.5,0-1,0.1-1.4,0.4
		C14.1,6.3,13.7,6.7,13.5,7.1L13.5,7.1L13.5,7.1z M24.5,9.6c0-0.7-0.2-1.4-0.5-2.1c-0.3-0.6-0.8-1.1-1.4-1.4c-1.3-0.7-2.8-0.7-4.1,0
		C18,6.5,17.5,7,17.2,7.6c-0.3,0.7-0.5,1.4-0.5,2.2c0,0.7,0.2,1.5,0.5,2.2c0.3,0.6,0.8,1.1,1.4,1.4c0.6,0.3,1.3,0.5,2,0.5
		c0.9,0,1.7-0.2,2.4-0.7c0.6-0.5,1.1-1.1,1.3-1.9h-2.2c-0.3,0.6-0.9,1-1.6,1c-0.5,0-0.9-0.2-1.3-0.5c-0.4-0.4-0.6-0.8-0.6-1.4h5.8
		C24.5,10.2,24.5,9.9,24.5,9.6L24.5,9.6L24.5,9.6z M18.7,9.1c0.1-0.5,0.3-0.9,0.6-1.3c0.3-0.3,0.8-0.5,1.2-0.5c0.5,0,1,0.2,1.3,0.5
		c0.4,0.3,0.6,0.8,0.6,1.2H18.7z M25.5,9.8c0,0.7,0.1,1.5,0.5,2.2c0.3,0.6,0.7,1.1,1.3,1.5c0.5,0.3,1.2,0.5,1.8,0.5
		c0.5,0,1.1-0.1,1.6-0.4c0.4-0.2,0.8-0.5,1.1-0.9v1.2h2v-8h-2V7c-0.3-0.4-0.6-0.7-1.1-0.9c-0.5-0.2-1-0.4-1.5-0.4
		c-0.6,0-1.3,0.2-1.8,0.5c-0.6,0.3-1,0.8-1.3,1.4C25.6,8.3,25.4,9,25.5,9.8L25.5,9.8L25.5,9.8z M31.7,9.8c0,0.4-0.1,0.9-0.3,1.3
		c-0.4,0.7-1.1,1.1-1.8,1.1c-0.4,0-0.7-0.1-1-0.3c-0.3-0.2-0.6-0.5-0.8-0.8c-0.2-0.4-0.3-0.8-0.3-1.3c0-0.4,0.1-0.9,0.3-1.2
		c0.3-0.7,1-1.1,1.8-1.1c0.8,0,1.5,0.4,1.8,1.1C31.6,8.9,31.7,9.4,31.7,9.8L31.7,9.8z M39.7,7.5V5.8h-1.8v-2h-2v2H35v1.7h0.9v3.8
		c-0.2,1.2,0.7,2.3,1.9,2.5c0.2,0,0.4,0,0.6,0h1.2v-1.7h-0.9c-0.2,0-0.5,0-0.7-0.2c-0.1-0.2-0.2-0.4-0.2-0.6V7.5L39.7,7.5L39.7,7.5z
		 M48.4,9.6c0-0.7-0.2-1.4-0.5-2.1c-0.3-0.6-0.8-1.1-1.4-1.4c-1.3-0.7-2.8-0.7-4.1,0c-0.6,0.3-1.1,0.8-1.4,1.4
		c-0.3,0.7-0.5,1.4-0.5,2.2c0,0.7,0.2,1.5,0.5,2.2c0.3,0.6,0.8,1.1,1.4,1.4c0.6,0.3,1.3,0.5,2,0.5c0.9,0,1.7-0.2,2.4-0.7
		c0.6-0.5,1.1-1.1,1.3-1.9h-2.2c-0.3,0.6-0.9,1-1.6,1c-0.5,0-0.9-0.2-1.3-0.5c-0.4-0.4-0.6-0.8-0.6-1.4h5.8
		C48.4,10.2,48.4,9.9,48.4,9.6L48.4,9.6L48.4,9.6z M42.6,9.1c0.1-0.5,0.3-0.9,0.6-1.3c0.3-0.3,0.8-0.5,1.2-0.5c0.5,0,1,0.2,1.3,0.5
		c0.4,0.3,0.6,0.8,0.6,1.2H42.6z"/>
	<g>
		<path class="st2" d="M58.8,4.8c0.8,0.4,1.4,1,1.8,1.7c0.4,0.7,0.6,1.6,0.6,2.6s-0.2,1.8-0.6,2.6c-0.4,0.7-1,1.3-1.8,1.7
			s-1.7,0.6-2.7,0.6h-3.4V4.2h3.4C57.1,4.2,58,4.4,58.8,4.8z M58.4,11.4c0.6-0.6,0.8-1.3,0.8-2.4c0-1-0.3-1.8-0.8-2.4
			c-0.6-0.6-1.4-0.9-2.4-0.9h-1.4v6.5H56C57.1,12.3,57.8,12,58.4,11.4z"/>
		<path class="st2" d="M62.8,4.9c-0.2-0.2-0.3-0.5-0.3-0.8c0-0.3,0.1-0.6,0.3-0.8C63.1,3.1,63.4,3,63.7,3s0.6,0.1,0.9,0.3
			c0.2,0.2,0.3,0.5,0.3,0.8c0,0.3-0.1,0.6-0.3,0.8c-0.2,0.2-0.5,0.3-0.9,0.3S63.1,5.1,62.8,4.9z M64.7,6.2v7.8h-2V6.2H64.7z"/>
		<path class="st2" d="M67.9,13.7c-0.5-0.2-0.9-0.5-1.2-0.9c-0.3-0.4-0.5-0.8-0.5-1.3h2c0,0.3,0.2,0.5,0.4,0.7s0.6,0.3,1,0.3
			c0.4,0,0.7-0.1,0.9-0.2c0.2-0.1,0.3-0.3,0.3-0.6c0-0.3-0.1-0.4-0.4-0.6c-0.3-0.1-0.7-0.3-1.2-0.4c-0.6-0.1-1.1-0.3-1.4-0.4
			c-0.4-0.1-0.7-0.4-1-0.7s-0.4-0.7-0.4-1.2c0-0.4,0.1-0.8,0.4-1.2c0.2-0.4,0.6-0.6,1.1-0.8c0.5-0.2,1-0.3,1.6-0.3
			c0.9,0,1.7,0.2,2.2,0.7s0.9,1.1,0.9,1.9h-1.9c0-0.3-0.2-0.6-0.4-0.7c-0.2-0.2-0.5-0.3-0.9-0.3c-0.4,0-0.6,0.1-0.8,0.2
			s-0.3,0.3-0.3,0.5c0,0.3,0.1,0.5,0.4,0.6c0.3,0.1,0.7,0.3,1.2,0.4c0.6,0.1,1,0.3,1.4,0.4c0.4,0.1,0.7,0.4,0.9,0.7
			c0.3,0.3,0.4,0.7,0.4,1.2c0,0.4-0.1,0.8-0.4,1.2c-0.2,0.4-0.6,0.6-1.1,0.8c-0.5,0.2-1,0.3-1.6,0.3C68.9,14.1,68.4,13.9,67.9,13.7z
			"/>
		<path class="st2" d="M74.2,7.9c0.3-0.6,0.8-1.1,1.4-1.4c0.6-0.3,1.2-0.5,2-0.5c1,0,1.8,0.2,2.4,0.7c0.6,0.5,1.1,1.2,1.3,2h-2.1
			C79,8.5,78.8,8.2,78.5,8c-0.3-0.2-0.6-0.3-1-0.3c-0.6,0-1,0.2-1.3,0.6c-0.3,0.4-0.5,1-0.5,1.7c0,0.7,0.2,1.3,0.5,1.7
			c0.3,0.4,0.8,0.6,1.3,0.6c0.8,0,1.3-0.4,1.6-1.1h2.1c-0.2,0.8-0.6,1.5-1.3,2c-0.6,0.5-1.4,0.7-2.4,0.7c-0.7,0-1.4-0.2-2-0.5
			c-0.6-0.3-1-0.8-1.4-1.4s-0.5-1.3-0.5-2.1S73.9,8.5,74.2,7.9z"/>
		<path class="st2" d="M84.1,13.6c-0.6-0.3-1.1-0.8-1.4-1.4c-0.3-0.6-0.5-1.3-0.5-2.1s0.2-1.5,0.5-2.1c0.3-0.6,0.8-1.1,1.4-1.4
			c0.6-0.3,1.3-0.5,2-0.5s1.4,0.2,2,0.5c0.6,0.3,1.1,0.8,1.4,1.4c0.4,0.6,0.5,1.3,0.5,2.1s-0.2,1.5-0.5,2.1
			c-0.4,0.6-0.8,1.1-1.5,1.4c-0.6,0.3-1.3,0.5-2.1,0.5C85.4,14.1,84.7,13.9,84.1,13.6z M87.1,12.1c0.3-0.2,0.6-0.4,0.7-0.8
			c0.2-0.3,0.3-0.8,0.3-1.3c0-0.7-0.2-1.3-0.6-1.7c-0.4-0.4-0.9-0.6-1.4-0.6c-0.6,0-1,0.2-1.4,0.6c-0.4,0.4-0.6,1-0.6,1.7
			s0.2,1.3,0.6,1.7c0.4,0.4,0.8,0.6,1.4,0.6C86.5,12.3,86.8,12.3,87.1,12.1z"/>
		<path class="st2" d="M98.9,6.2v7.8h-2v-1c-0.3,0.3-0.6,0.6-1,0.8c-0.4,0.2-0.8,0.3-1.3,0.3c-0.6,0-1.1-0.1-1.6-0.4
			c-0.5-0.3-0.8-0.6-1.1-1.1s-0.4-1.1-0.4-1.8V6.2h2v4.3c0,0.6,0.2,1.1,0.5,1.4c0.3,0.3,0.7,0.5,1.3,0.5c0.5,0,1-0.2,1.3-0.5
			c0.3-0.3,0.5-0.8,0.5-1.4V6.2H98.9z"/>
		<path class="st2" d="M107.4,6.9c0.6,0.6,0.9,1.4,0.9,2.4v4.5h-2V9.6c0-0.6-0.2-1.1-0.5-1.4c-0.3-0.3-0.7-0.5-1.3-0.5
			c-0.5,0-1,0.2-1.3,0.5c-0.3,0.3-0.5,0.8-0.5,1.4v4.3h-2V6.2h2v1c0.3-0.3,0.6-0.6,1-0.8c0.4-0.2,0.9-0.3,1.3-0.3
			C106.1,6.1,106.8,6.4,107.4,6.9z"/>
		<path class="st2" d="M112.4,7.8v3.8c0,0.3,0.1,0.5,0.2,0.6c0.1,0.1,0.3,0.2,0.6,0.2h0.9v1.7h-1.2c-1.7,0-2.5-0.8-2.5-2.4V7.8h-0.9
			V6.2h0.9V4.3h2v1.9h1.7v1.6H112.4z"/>
	</g>
</g>
</svg>
