<?xml version="1.0" encoding="utf-8"?>
<!-- Generator: Adobe Illustrator 24.2.1, SVG Export Plug-In . SVG Version: 6.00 Build 0)  -->
<svg version="1.1" id="Approve" xmlns="http://www.w3.org/2000/svg" xmlns:xlink="http://www.w3.org/1999/xlink" x="0px" y="0px"
	 viewBox="0 0 17 15.4" style="enable-background:new 0 0 17 15.4;" xml:space="preserve">
<style type="text/css">
	.st0{fill-rule:evenodd;clip-rule:evenodd;fill:#FF6453;}
</style>
<script  xmlns=""></script>
<path class="st0" d="M8.6,0.3c-4.1,0-7.5,3.3-7.5,7.5c0,4.1,3.3,7.5,7.5,7.5l0,0c4.1,0,7.5-3.3,7.5-7.5l0,0
	C16.1,3.7,12.7,0.3,8.6,0.3z M2.3,7.8c0-3.5,2.8-6.3,6.3-6.3c1.5,0,2.8,0.5,3.9,1.4l-8.8,8.8C2.8,10.6,2.3,9.3,2.3,7.8z M8.6,14.1
	c-1.5,0-2.8-0.5-3.9-1.3L13.5,4c0.8,1.1,1.3,2.4,1.3,3.9C14.9,11.3,12,14.1,8.6,14.1z"/>
</svg>
