<svg xmlns="http://www.w3.org/2000/svg" width="30" height="30" viewBox="0 0 30 30">
  <defs>
    <style>
      .cls-1 {
        fill: #0073e0;
        fill-rule: evenodd;
      }
    </style>
  </defs>
  <path id="dob" class="cls-1" d="M448.9,544.3a1.083,1.083,0,0,1-.777-0.327l-1.2-1.21-1.2,1.21a1.117,1.117,0,0,1-1.555,0l-1.2-1.21-1.2,1.213a1.083,1.083,0,0,1-.777.327,1.109,1.109,0,0,1-1.1-1.114v-0.875a1.7,1.7,0,0,1,1.684-1.7h2.806v-1.136h1.122v1.136h2.806a1.705,1.705,0,0,1,1.689,1.7v0.872A1.109,1.109,0,0,1,448.9,544.3Zm-3.956-8.8,0.962,1.687a1.15,1.15,0,0,1,.16.585,1.123,1.123,0,1,1-2.245,0,1.15,1.15,0,0,1,.16-0.585Zm-1.9-1.514a0.956,0.956,0,1,1,.935-0.955A0.946,0.946,0,0,1,443.045,533.986Zm-12.2,8.311a0.955,0.955,0,1,1,.934-0.955A0.944,0.944,0,0,1,430.844,542.3Zm0-8.311a0.956,0.956,0,1,1,.934-0.955A0.945,0.945,0,0,1,430.844,533.986Zm0,4.156a0.956,0.956,0,1,1,.934-0.956A0.945,0.945,0,0,1,430.844,538.142Zm4.067,4.155a0.955,0.955,0,1,1,.935-0.955A0.944,0.944,0,0,1,434.911,542.3Zm0-8.311a0.956,0.956,0,1,1,.935-0.955A0.945,0.945,0,0,1,434.911,533.986Zm0,4.156a0.956,0.956,0,1,1,.935-0.956A0.945,0.945,0,0,1,434.911,538.142Zm13.09-3.01a0.944,0.944,0,0,1-.935-0.955v-5.445a1.893,1.893,0,0,0-1.87-1.911H443.98v0.955a0.935,0.935,0,1,1-1.87,0v-0.955h-4.254v0.955a0.935,0.935,0,1,1-1.87,0v-0.955h-4.208v0.955a0.935,0.935,0,1,1-1.869,0v-0.955H428.74a1.893,1.893,0,0,0-1.87,1.911v14.9a1.894,1.894,0,0,0,1.87,1.911h7.153a0.955,0.955,0,0,1,0,1.91H428.74a3.786,3.786,0,0,1-3.74-3.821v-14.9a3.786,3.786,0,0,1,3.74-3.822h1.169v-0.955a0.935,0.935,0,1,1,1.869,0v0.955h4.208v-0.955a0.935,0.935,0,1,1,1.87,0v0.955h4.254v-0.955a0.935,0.935,0,1,1,1.87,0v0.955H445.2a3.786,3.786,0,0,1,3.74,3.822v5.445A0.945,0.945,0,0,1,448,535.132Zm-9.023-3.057a0.956,0.956,0,1,1-.935.956A0.946,0.946,0,0,1,438.978,532.075Zm3.382,12.507,0.606-.611,0.6,0.611a1.97,1.97,0,0,0,2.744,0l0.606-.611,0.6,0.611a1.913,1.913,0,0,0,2.472.227v2.623a0.566,0.566,0,0,1-.561.568h-8.979a0.567,0.567,0,0,1-.561-0.568v-2.623a1.921,1.921,0,0,0,1.1.35A1.893,1.893,0,0,0,442.36,544.582Z" transform="translate(-422.5 -520.5)"/>
</svg>
