<svg xmlns="http://www.w3.org/2000/svg" width="30" height="30" viewBox="0 0 30 30">
  <defs>
    <style>
      .cls-1 {
        fill: #545454;
        fill-rule: evenodd;
      }
    </style>
  </defs>
  <path id="email" class="cls-1" d="M1043.04,657.03a7.464,7.464,0,1,0,7.27,7.461A7.381,7.381,0,0,0,1043.04,657.03Zm0,12.711a5.252,5.252,0,1,1,5.12-5.25A5.186,5.186,0,0,1,1043.04,669.741Zm3.36,4.737h0c-0.25-.064-0.5-0.119-0.75-0.163-0.05-.01-0.11-0.017-0.16-0.025-0.22-.034-0.43-0.065-0.65-0.084-0.17-.016-0.35-0.021-0.53-0.027-0.09,0-.19-0.015-0.28-0.015h-1.69c-0.13,0-.25.015-0.38,0.02s-0.26.008-.39,0.02a9.969,9.969,0,0,0-9.03,10.018,1.08,1.08,0,1,0,2.16,0,7.834,7.834,0,0,1,5.25-7.449c0.1-.035.2-0.062,0.3-0.093a7.466,7.466,0,0,1,2.09-.306h1.62a7.488,7.488,0,0,1,2.52.436,1.059,1.059,0,0,0,.23.052,7.754,7.754,0,0,1,4.88,7.239,1.065,1.065,0,1,0,2.13,0A9.9,9.9,0,0,0,1046.4,674.478Z" transform="translate(-1028.125 -656.172)"/>
</svg>
