<svg xmlns="http://www.w3.org/2000/svg" width="30" height="30" viewBox="0 0 30 30">
  <defs>
    <style>
      .cls-1 {
        fill: #0073e0;
        fill-rule: evenodd;
      }
    </style>
  </defs>
  <path id="father" class="cls-1" d="M448.662,640.67a1.162,1.162,0,0,1-.813.33h-20.7a1.164,1.164,0,0,1-.813-0.33,1.111,1.111,0,0,1-.337-0.795v-1.116a7.719,7.719,0,0,1,1.692-4.8,8.015,8.015,0,0,1,4.343-2.777,1.138,1.138,0,0,0,.619-0.387,1.1,1.1,0,0,0,.246-0.677v-1.132l-1.284-1.255a3.307,3.307,0,0,1-.752-1.085,3.25,3.25,0,0,1-.263-1.285v-4.655a6.716,6.716,0,0,1,1.959-4.65A7.015,7.015,0,0,1,437.251,614a7.271,7.271,0,0,1,2.732.528,7.151,7.151,0,0,1,2.319,1.511,6.976,6.976,0,0,1,1.55,2.264,6.848,6.848,0,0,1,.547,2.672v4.387a3.252,3.252,0,0,1-.268,1.293,3.3,3.3,0,0,1-.761,1.09l-1.271,1.242v1.132a1.1,1.1,0,0,0,.247.677,1.138,1.138,0,0,0,.619.387,8.022,8.022,0,0,1,4.344,2.777,7.725,7.725,0,0,1,1.69,4.8v1.116A1.111,1.111,0,0,1,448.662,640.67Zm-3.174-5.334a5.719,5.719,0,0,0-3.1-1.973,3.441,3.441,0,0,1-1.863-1.188,3.31,3.31,0,0,1-.729-2.056v-1.6a1.111,1.111,0,0,1,.337-0.795l1.621-1.585a1.106,1.106,0,0,0,.252-0.355,1.05,1.05,0,0,0,.089-0.424v-4.387a4.658,4.658,0,0,0-1.391-3.322,4.871,4.871,0,0,0-3.377-1.4,4.66,4.66,0,0,0-3.124,1.364,4.466,4.466,0,0,0-1.308,3.093v4.655a1.057,1.057,0,0,0,.328.765l1.636,1.6a1.115,1.115,0,0,1,.337.795v1.6a3.319,3.319,0,0,1-.73,2.056,3.438,3.438,0,0,1-1.862,1.188,5.718,5.718,0,0,0-3.1,1.973,5.5,5.5,0,0,0-1.211,3.415h18.4A5.5,5.5,0,0,0,445.488,635.336Z" transform="translate(-422.5 -612.5)"/>
</svg>
