<svg xmlns="http://www.w3.org/2000/svg" width="30" height="30" viewBox="0 0 30 30">
  <defs>
    <style>
      .cls-1 {
        fill: #0073e0;
        fill-rule: evenodd;
      }
    </style>
  </defs>
  <path id="gender" class="cls-1" d="M1289.11,302.585a8.1,8.1,0,0,0,3.1-2.28,0.952,0.952,0,0,1,.46-0.223,4.293,4.293,0,1,0-4.69-6.665,4.007,4.007,0,0,0-.28,4.685c0.26,0.457.09,0.575-.27,0.705a3.682,3.682,0,0,1-2.19.154,0.549,0.549,0,0,1-.43-0.371,6.673,6.673,0,0,1,1.05-6.951,7.027,7.027,0,0,1,6.31-2.627,6.482,6.482,0,0,1,3.09,1.057,0.384,0.384,0,0,0,.6-0.072c0.29-.326.62-0.62,1.01-1a1.8,1.8,0,0,1-1.72-.52,1.465,1.465,0,0,1,.88-2.371,15.686,15.686,0,0,1,2.94-.072,7.293,7.293,0,0,1,2.12.083,0.989,0.989,0,0,1,.89,1.076c0.02,1.486.03,2.974,0.01,4.46a1.328,1.328,0,0,1-1.37,1.323,1.464,1.464,0,0,1-1.38-1.337c-0.02-.283-0.01-0.568-0.01-0.944-0.52.468-.96,0.885-1.43,1.281a0.287,0.287,0,0,0-.04.435,6.672,6.672,0,0,1,.95,3.821,6.832,6.832,0,0,1-1.68,4.2,6.941,6.941,0,0,1-4.44,2.473A6.722,6.722,0,0,1,1289.11,302.585Zm-1.53-13.759a9.16,9.16,0,0,0-2.14,1.6,3.548,3.548,0,0,0-.24.267,4.635,4.635,0,0,1-1.5,1.4,4.039,4.039,0,0,0-1.68,4.886,4.275,4.275,0,0,0,4.51,2.782,4.326,4.326,0,0,0,3.79-3.5,3.867,3.867,0,0,0-.43-2.59c-0.2-.363-0.07-0.514.25-0.646a3.779,3.779,0,0,1,2.29-.134,0.371,0.371,0,0,1,.29.312,6.6,6.6,0,0,1-1.13,6.667,6.509,6.509,0,0,1-3.86,2.379,0.423,0.423,0,0,0-.38.517c0.01,1.1,0,1.112,1.14,1.1a1.725,1.725,0,0,1,1.62.581,1.318,1.318,0,0,1-.81,2.093,3.509,3.509,0,0,1-.57.087,2.938,2.938,0,0,0-1.23.041c-0.35.2-.09,0.741-0.14,1.128a1.533,1.533,0,0,1-1.41,1.2,1.479,1.479,0,0,1-1.42-1.4,1.162,1.162,0,0,0-.12-0.941,2.3,2.3,0,0,0-1.03-.028,2.193,2.193,0,0,1-.97-0.18,1.391,1.391,0,0,1-.73-1.594,1.456,1.456,0,0,1,1.26-.985c0.17-.014.35,0.006,0.52,0a1.58,1.58,0,0,0,.99-0.067,3.8,3.8,0,0,0,.07-1.356c0-.16-0.16-0.183-0.3-0.22A6.909,6.909,0,0,1,1287.58,288.826Z" transform="translate(-1275.485 -282.5)"/>
</svg>
