<?xml version="1.0" encoding="utf-8"?>
<!-- Generator: Adobe Illustrator 25.0.1, SVG Export Plug-In . SVG Version: 6.00 Build 0)  -->
<svg version="1.1" id="Layer_1" xmlns="http://www.w3.org/2000/svg" xmlns:xlink="http://www.w3.org/1999/xlink" x="0px" y="0px"
	 viewBox="0 0 31 31" style="enable-background:new 0 0 31 31;" xml:space="preserve">
<style type="text/css">
	.st0{fill:#9D9D9D;}
</style>
<g>
	<path class="st0" d="M0.7,3.4c0-1.7,1.3-2.8,3.1-2.8s3.1,1.1,3.1,2.8c0,1.6-1.3,2.8-3.1,2.8S0.7,5,0.7,3.4z M1.3,9.9h5V31h-5V9.9z"
		/>
	<path class="st0" d="M12.6,9.9h4.1l0.4,2.9h0.1c1.9-1.8,4-3.4,6.9-3.4c4.5,0,6.5,3.1,6.5,8.4V31h-5V18.4c0-3.5-1-4.8-3.3-4.8
		c-1.9,0-3.1,0.9-4.8,2.6V31h-5V9.9z"/>
</g>
</svg>
