<svg xmlns="http://www.w3.org/2000/svg" width="30.001" height="29.621" viewBox="0 0 71.91 71">
  <defs>
    <style>
      .cls-1 {
        fill: #2390ff;
        fill-rule: evenodd;
      }
    </style>
  </defs>
  <path id="leaveType" class="cls-1" d="M1008.64,131.254h5.47a5.163,5.163,0,0,1,5.12,5.2v1.222a2.56,2.56,0,1,0,5.12,0V132.46c0-5.738-4.59-6.409-10.24-6.409h-5.47a2.552,2.552,0,0,0-2.57,2.33A2.988,2.988,0,0,0,1008.64,131.254Zm-45.459,36.414v9.373a10.335,10.335,0,0,0,10.239,10.406h8.048a2.6,2.6,0,0,0,0-5.2H973.42a5.167,5.167,0,0,1-5.119-5.2v-9.373C968.75,163.448,963.181,161.93,963.181,167.668Zm56.709-3.376c-0.76,3.239-1.48,6.284-2.17,9.337a1.584,1.584,0,0,0,.15.869q3.135,7.824,6.31,15.638a2.77,2.77,0,0,1-.06,2.609,2.539,2.539,0,0,1-4.49-.212c-1.15-2.18-2.23-4.4-3.33-6.6-1.95-3.888-3.85-7.806-5.87-11.656a8.35,8.35,0,0,1-.67-6.538c0.35-1.2.54-2.445,0.84-3.833-0.65.578-1.19,1.052-1.72,1.54-1.89,1.739-3.71,3.549-5.68,5.195a3.546,3.546,0,0,0-1.01,2.332c-1.26,5.764-2.492,11.537-3.733,17.308a3.726,3.726,0,0,0-.139.681c-0.015.747-.417,0.9-1.107,0.723a3.1,3.1,0,0,0-1.291-2.318,4.227,4.227,0,0,0-1.8-.621c-1.5-.121-2.569.771-3.246,2.524-1.377-.2-2.2-2.127-1.932-3.268,0.7-2.985,1.386-5.973,2.171-8.936a4.288,4.288,0,0,1,4.145-3.047c1.256,0,2.512,0,3.826,0l0.989-3.923a5.631,5.631,0,0,1,.19-0.812,1.544,1.544,0,0,0-.1-1.427,1.835,1.835,0,0,1,.44-2.294c4.05-4.141,8.07-8.3,12.16-12.4a6.454,6.454,0,0,1,2.5-1.554,4.455,4.455,0,0,1,5.33,2.257c1.34,2.391,2.62,4.82,3.96,7.216a1.9,1.9,0,0,0,.78.721c1.69,0.83,4.51,2.054,6.31,2.928a2.124,2.124,0,0,1,1.27,2.107,1.961,1.961,0,0,1-1.47,1.948,2.5,2.5,0,0,1-1.43-.026c-2.34-.875-5.54-2.45-7.73-3.351a2.866,2.866,0,0,1-1.07-.947C1020.75,165.828,1020.39,165.123,1019.89,164.292Zm-9.79,12.813c1.3,2.619,2.52,5.07,3.72,7.533a0.861,0.861,0,0,1-.01.65,3.2,3.2,0,0,1-.52.82c-2.15,2.359-4.3,4.724-6.48,7.052a2.545,2.545,0,0,1-4.03-.335,2.624,2.624,0,0,1,.27-3.171q2.535-3.159,5.06-6.33a2.19,2.19,0,0,0,.36-0.731C1009.01,180.823,1009.53,179.047,1010.1,177.105Zm14.98-29.679a5.106,5.106,0,0,1-5.05,5A5.026,5.026,0,1,1,1025.08,147.426Zm-31.125,46.563a1.989,1.989,0,0,1-1.987-2.056,2.169,2.169,0,0,1,2.121-2.137,2.243,2.243,0,0,1,2.055,2.232A2.071,2.071,0,0,1,993.955,193.989Zm3.236-46.275a14.609,14.609,0,0,1-1.624,3.829l4.8,4.718-5.35,5.256-4.808-4.719a15.226,15.226,0,0,1-3.837,1.576v6.62H978.8v-6.587a15.207,15.207,0,0,1-3.965-1.609l-4.808,4.719-5.355-5.256,4.808-4.718a14.609,14.609,0,0,1-1.624-3.829H961v-7.432h6.853a14.588,14.588,0,0,1,1.624-3.828l-4.808-4.719,5.356-5.255,4.807,4.719a15.166,15.166,0,0,1,3.965-1.609V123h7.574v6.62a15.177,15.177,0,0,1,3.837,1.577l4.809-4.719,5.359,5.255-4.813,4.719a14.588,14.588,0,0,1,1.624,3.828h6.789v7.432h-6.789Zm-14.666,3.716a7.433,7.433,0,1,0,0-14.864,7.622,7.622,0,0,0-4.369,1.367l-1.813,1.778A7.3,7.3,0,0,0,974.951,144,7.512,7.512,0,0,0,982.525,151.43Z" transform="translate(-961 -123)"/>
</svg>
