<svg xmlns="http://www.w3.org/2000/svg" xmlns:xlink="http://www.w3.org/1999/xlink" width="30" height="30.031" viewBox="0 0 30 30.031">
  <defs>
    <style>
      .cls-1 {
        fill: #d41635;
        fill-rule: evenodd;
      }
    </style>
    <clipPath id="clip-path">
      <rect x="-0.5" y="0.016" width="30" height="30"/>
    </clipPath>
  </defs>
  <g clip-path="url(#clip-path)">
    <path id="Shape_499_1" data-name="Shape 499 1" class="cls-1" d="M22.89,20.576l4.041,8.363a0.728,0.728,0,0,1-.143.833,0.769,0.769,0,0,1-.849.159l-5.063-2.2-5.063,2.2a0.772,0.772,0,0,1-.615,0l-5.063-2.2-5.063,2.2a0.769,0.769,0,0,1-.849-0.159,0.727,0.727,0,0,1-.143-0.833l4.041-8.363a0.75,0.75,0,0,1,.376-0.36l2.022-.88L7.038,13.624C7.03,13.611,7.022,13.6,7.015,13.582A9.153,9.153,0,0,1,8.745,2.774,9.668,9.668,0,0,1,22.2,2.694a9.163,9.163,0,0,1,2.84,6.642A9.064,9.064,0,0,1,24,13.583c-0.007.014-.015,0.028-0.024,0.042l-3.484,5.711L22.5,20.211A0.75,0.75,0,0,1,22.89,20.576Zm-3.18.04-2.255,3.7a2.3,2.3,0,0,1-3.9,0l-2.255-3.7-1.931.841-3.05,6.311L9.829,26.24a0.772,0.772,0,0,1,.615,0l5.063,2.2,5.063-2.2a0.773,0.773,0,0,1,.615,0l3.507,1.527-3.05-6.31ZM15.639,3.988a3.334,3.334,0,0,0-3.515,3.118,3.334,3.334,0,0,0,3.515,3.118,3.334,3.334,0,0,0,3.515-3.118A3.334,3.334,0,0,0,15.639,3.988ZM20,14.106c0-2.2-2.011-3.241-4.491-3.241s-4.491,1.04-4.491,3.241v0.9H20v-0.9Z" transform="translate(-0.5 0.016)"/>
  </g>
</svg>
