<svg xmlns="http://www.w3.org/2000/svg" width="30" height="30" viewBox="0 0 30 30">
  <defs>
    <style>
      .cls-1 {
        fill: #0083ff;
        fill-rule: evenodd;
      }
    </style>
  </defs>
  <path id="mobile_no" class="cls-1" d="M1613,192h-12a2.971,2.971,0,0,0-3,2.93v19.14a2.971,2.971,0,0,0,3,2.93h12a2.971,2.971,0,0,0,3-2.93V194.93A2.971,2.971,0,0,0,1613,192Zm1,22.07a0.991,0.991,0,0,1-1,.977h-12a0.991,0.991,0,0,1-1-.977V194.93a0.991,0.991,0,0,1,1-.977h1.78l0.21,0.6a1,1,0,0,0,.95.665h6.12a1,1,0,0,0,.95-0.665l0.21-.6H1613a0.991,0.991,0,0,1,1,.977v19.14Z" transform="translate(-1592 -189.5)"/>
</svg>
