<svg xmlns="http://www.w3.org/2000/svg" width="24" height="24" viewBox="0 0 24 24">
  <defs>
    <style>
      .cls-1 {
        fill: #0073e0;
        fill-rule: evenodd;
      }
    </style>
  </defs>
  <path id="mode_of_payment_" data-name="mode_of_payment " class="cls-1" d="M291,266.179a0.832,0.832,0,0,1-.863.834c-1.174.006-2.349,0-3.524,0H286.45a2.844,2.844,0,0,1-2.209-.628,2.314,2.314,0,0,1-.758-2.5,2.416,2.416,0,0,1,2.006-1.773,3.375,3.375,0,0,1,.665-0.05c1.311,0,2.622,0,3.934,0a0.818,0.818,0,0,1,.861.619,0.223,0.223,0,0,1,.043.206C291,263.98,291,265.079,291,266.179Zm-4.279-2.6a0.958,0.958,0,1,0,.99.948A0.978,0.978,0,0,0,286.719,263.575Zm3.428-2.525c0,0.122-.015.182-0.169,0.181-1.265-.009-2.53-0.009-3.8-0.012h-0.161a6.452,6.452,0,0,0-.911.047l-0.212.019a4.108,4.108,0,0,0-1.339.641,3.534,3.534,0,0,0-1.18,1.72c-0.013.039-.033,0.077-0.049,0.115s-0.012.1-.017,0.155a5,5,0,0,0-.05.931c0,0.051,0,.1,0,0.154q0.1,0.362.206,0.723c0.02,0.052.041,0.1,0.061,0.155l0.293,0.508h0c0.011,0.019.023,0.038,0.035,0.057l0.478,0.522,0.54,0.4a0.116,0.116,0,0,1,.105.058l0.753,0.307,0.8,0.116h4.445c0.077-.008.168-0.039,0.161,0.091a10.16,10.16,0,0,1-.1,2.2,2.534,2.534,0,0,1-2.337,1.824c-0.649.023-1.3,0-1.948,0H269.53a1.885,1.885,0,0,1-.754-0.14l-0.051-.012a1.751,1.751,0,0,1-.651-0.333h0l-0.1-.074a1.589,1.589,0,0,1-.438-0.442h0l-0.047-.067a1.659,1.659,0,0,1-.365-0.73c0-.018,0-0.035-0.008-0.052h0a1.757,1.757,0,0,1-.1-0.777v-1.034h0v-9.458a14.2,14.2,0,0,1,.041-2.134,2.5,2.5,0,0,1,2.395-2.095c0.559-.025,1.121,0,1.682-0.011,0.128,0,.185.03,0.148,0.159v0.154c0,0.393,0,.786.012,1.178,0,0.14-.046.166-0.18,0.169a7.158,7.158,0,0,0-1.216.033,0.677,0.677,0,0,0-.325.274,0.492,0.492,0,0,0,.548.515c0.282,0.01.565,0.007,0.847,0.01H287.2a2.711,2.711,0,0,1,.857.052,0.1,0.1,0,0,1,.115.026,1.959,1.959,0,0,1,.638.27l0.105,0.022a1.487,1.487,0,0,1,.486.386c0.035,0.037.07,0.073,0.1,0.11a2.223,2.223,0,0,1,.635,1.535C290.163,260.017,290.141,260.534,290.147,261.05Zm-8.2-7.068a3.522,3.522,0,0,1,3.463,1.848c0.03,0.062.048,0.13,0.081,0.19,0.113,0.206.039,0.252-.185,0.25-0.909-.01-1.819,0-2.728,0s-1.837-.008-2.756.006c-0.227,0-.244-0.078-0.215-0.252A2.485,2.485,0,0,1,281.947,253.982Zm6.794,2.1a0.255,0.255,0,0,1-.272.184c-0.535-.013-1.07,0-1.643,0,0.147-.341.279-0.669,0.431-0.988,0.071-.149.049-0.213-0.107-0.294a2.485,2.485,0,0,1-1.285-3.1,0.169,0.169,0,0,0-.128-0.257c-0.687-.274-1.372-0.55-2.052-0.839a0.222,0.222,0,0,0-.342.127,2.64,2.64,0,0,1-3.149,1.228,0.213,0.213,0,0,0-.326.145c-0.531,1.23-1.076,2.454-1.6,3.686a0.4,0.4,0,0,1-.453.3c-0.516-.025-1.034-0.008-1.6-0.008,0.277-.616.545-1.21,0.813-1.805a0.555,0.555,0,0,1,.113-0.261c0.208-.527.431-1.049,0.686-1.557a0.172,0.172,0,0,1,.061-0.149h0q0.739-1.7,1.478-3.4a1.738,1.738,0,0,1,1.364-1.065,2.3,2.3,0,0,1,1.444.318,0.06,0.06,0,0,1,.048.018,5,5,0,0,1,.746.307l0.056,0.013c2.022,0.822,4.047,1.636,6.062,2.471a1.667,1.667,0,0,1,.894,2.266C289.568,254.309,289.152,255.2,288.741,256.086Zm-13.573.013c-0.127.3-.355,0.087-0.479,0.165-0.474,0-.471,0-0.359-0.41,0.524-1.914,1.04-3.831,1.573-5.743a1.766,1.766,0,0,1,2.208-1.195c0.175,0.046.158,0.095,0.1,0.224Q276.683,252.616,275.168,256.1Zm-2.06-.065a0.265,0.265,0,0,1-.322.234c-0.539-.013-0.541,0-0.467-0.526q0.26-1.836.522-3.671c0.047-.332.064-0.668,0.132-1a1.725,1.725,0,0,1,1.889-1.364c-0.423,1.292-.731,2.6-1.1,3.891C273.532,254.409,273.316,255.221,273.108,256.034Z" transform="translate(-267 -248)"/>
</svg>
