<svg xmlns="http://www.w3.org/2000/svg" width="20" height="20" viewBox="0 0 21 21">
  <defs>
    <style>
      .cls-1 {
        fill: #0072de;
        fill-rule: evenodd;
      }
    </style>
  </defs>
  <path id="Org" class="cls-1" d="M1283.65,362.528h0.66c0.44,0,.87.01,1.31,0,0.22-.008.28,0.06,0.29,0.284,0.05,1.022.06,1.022-.94,1.022-0.66,0-1.31-.011-1.97.006-0.24.006-.31-0.061-0.31-0.307C1282.67,362.527,1282.66,362.528,1283.65,362.528Zm1.24-1.678h-0.56c-0.42,0-.85-0.013-1.27,0-0.29.012-.37-0.1-0.37-0.382-0.02-1.012-.03-1.012.98-1.012,0.64,0,1.27.01,1.91,0a0.264,0.264,0,0,1,.33.308C1285.98,360.852,1285.98,360.852,1284.89,360.85Zm0.03-6.131c-0.63,0-1.27-.007-1.91,0-0.21,0-.32-0.021-0.32-0.29-0.03-1.015-.04-1.015.99-1.015h0.6c0.46,0,.91.011,1.36,0,0.22-.008.28,0.051,0.28,0.283C1285.92,354.719,1285.93,354.719,1284.92,354.719Zm0.98,2.893c0,0.22-.17.173-0.3,0.174-0.44,0-.88,0-1.31,0s-0.85,0-1.27,0c-0.11,0-.29.048-0.31-0.12a10.312,10.312,0,0,1,0-1.112,0.2,0.2,0,0,1,.24-0.161c0.91,0,1.81.007,2.71,0a0.22,0.22,0,0,1,.26.246C1285.92,356.962,1285.91,357.287,1285.9,357.612Zm6.21-1.217c0.6,0,1.21.008,1.82-.007a0.309,0.309,0,0,1,.38.372c0.03,1.027.04,1.027-1,1.027h-0.61c-0.44,0-.87-0.012-1.31,0a0.245,0.245,0,0,1-.3-0.287C1291,356.4,1291,356.4,1292.11,356.4Zm-0.07,6.133c0.66,0,1.31.01,1.96-.006,0.25-.006.31,0.065,0.31,0.307,0.02,1,.03,1-0.96,1h-0.65c-0.43,0-.87-0.016-1.3.006-0.26.013-.31-0.08-0.31-0.313C1291.06,362.527,1291.05,362.528,1292.04,362.528Zm0.06-3.068c0.62,0,1.24.011,1.87,0a0.273,0.273,0,0,1,.34.336c0.03,1.056.04,1.056-1.04,1.063-0.19,0-.37,0-0.56,0v0c-0.44,0-.87-0.01-1.31,0a0.244,0.244,0,0,1-.31-0.285v-0.046C1291.02,359.46,1291.02,359.46,1292.1,359.46Zm5.95,7.53q-9.78,0-19.57.009c-0.38,0-.49-0.082-0.48-0.473,0.03-.929.01-0.951,0.95-0.92,0.39,0.013.48-.09,0.48-0.476-0.02-4.26-.01-8.52-0.01-12.779,0-.888.06-0.985,0.91-1.21q4.005-1.065,8.02-2.116a0.6,0.6,0,0,1,.8.547c0.04,0.742.02,1.485,0.02,2.228a0.273,0.273,0,0,1,0,.091,1.919,1.919,0,0,1-1.14.128c-0.23.041-.18-0.144-0.18-0.275-0.01-.4-0.01-0.8-0.01-1.209l-6.69,1.772a0.379,0.379,0,0,0-.34.435c0.02,4.166.01,8.333,0,12.5,0,0.28.06,0.363,0.36,0.361,2.11-.014,4.21-0.017,6.32,0,0.34,0,.36-0.132.36-0.4q-0.015-5.484-.01-10.967a0.69,0.69,0,0,1,.77-0.852q4.08-.045,8.14-0.055a0.776,0.776,0,0,1,.83.843c0.01,2.524,0,5.049.01,7.574,0,0.228-.04.317-0.3,0.324-1.11.029-1.11,0.039-1.11-1.062,0-1.952-.01-3.9.01-5.855,0-.379-0.11-0.446-0.46-0.443q-3.045.024-6.09,0c-0.35,0-.48.06-0.47,0.447q0.015,5.04,0,10.081c0,0.346.14,0.361,0.41,0.36,2.98-.006,5.96,0,8.94-0.014,0.39,0,.49.09,0.48,0.477C1298.97,366.989,1298.99,366.99,1298.05,366.99Zm-0.98-2.5a0.179,0.179,0,0,0-.04,0c-0.86.018-.85,0.017-0.86-0.835,0-.295.07-0.432,0.38-0.384a2.526,2.526,0,0,0,.38,0c0.65,0,.63,0,0.66.694C1297.61,364.376,1297.51,364.567,1297.07,364.486Z" transform="translate(-1278 -347.5)"/>
</svg>
