<svg xmlns="http://www.w3.org/2000/svg" width="17.392" height="16.181" viewBox="0 0 17.392 16.181">
  <g id="pouches" transform="translate(797.598 -202.818)">
    <path id="Path_384" data-name="Path 384" d="M-785.743,222.263a1.864,1.864,0,0,1-.007-.663,13.234,13.234,0,0,0,.005-5.317,2.692,2.692,0,0,1,.016-.732c.077-.929.168-1.856.241-2.785.034-.439-.244-.563-.615-.509-.722.105-1.439.241-2.16.35a2.808,2.808,0,0,1-.725.03,14.783,14.783,0,0,0-2.972-.334,13.01,13.01,0,0,1-4.834-.031,1.576,1.576,0,0,0-.205-.009c-.411-.054-.618.13-.585.538.076.928.173,1.855.255,2.783a2.35,2.35,0,0,1,.015.667,12.927,12.927,0,0,0,0,5.382,2.006,2.006,0,0,1,0,.6c-.09.927-.193,1.853-.281,2.78-.046.484.208.672.666.6.72-.114,1.437-.246,2.158-.359a1.426,1.426,0,0,1,.654-.029,7.159,7.159,0,0,0,3.926.286,7.537,7.537,0,0,1,3.193.01c1.5.315,1.539.222,1.612-1.313C-785.505,223.56-785.636,222.914-785.743,222.263Zm-2.76,2.008a1.448,1.448,0,0,0-.7-.008,7.031,7.031,0,0,1-4.575.017,1.315,1.315,0,0,0-.642-.046c-.694.139-1.381.314-2.152.495a4.8,4.8,0,0,1,.144-2.6,1.51,1.51,0,0,0,.041-.7,11.263,11.263,0,0,1,.01-5,1.8,1.8,0,0,0-.025-.644c-.122-.814-.257-1.626-.387-2.438l.209-.164c.665.14,1.327.294,2,.413a1.673,1.673,0,0,0,.76-.01,7.286,7.286,0,0,1,4.522,0,1.645,1.645,0,0,0,.76.008c.674-.12,1.342-.275,2.095-.433a5.709,5.709,0,0,1-.206,2.586,1.23,1.23,0,0,0-.06.642,11.149,11.149,0,0,1,.03,5,2.359,2.359,0,0,0,.047.767c.1.8.214,1.593.35,2.588C-787.172,224.553-787.835,224.4-788.5,224.272Z" transform="translate(0 -8.133)" fill="#fff"/>
    <path id="Path_385" data-name="Path 385" d="M-769.521,275.353a10.046,10.046,0,0,1,4.423.019A9.986,9.986,0,0,1-769.521,275.353Z" transform="translate(-24.221 -62.369)" fill="#fff"/>
    <path id="Path_386" data-name="Path 386" d="M-758.684,287.844h-1.907A1.42,1.42,0,0,1-758.684,287.844Z" transform="translate(-31.925 -73.033)" fill="#fff"/>
    <path id="Path_387" data-name="Path 387" d="M-771.566,239.282a.989.989,0,0,0-1.081-1.056c-.776-.015-1.553,0-2.329,0v0c-.776,0-1.553-.016-2.329,0a.993.993,0,0,0-1.071,1.07c-.022.524-.02,1.051,0,1.575a1,1,0,0,0,1.086,1.059c1.553.013,3.106.016,4.658,0a.987.987,0,0,0,1.068-1.075C-771.545,240.332-771.544,239.806-771.566,239.282Zm-2.341,2.158c-.342,0-.685,0-1.027,0v0c-.753,0-1.506,0-2.259,0-.474,0-.712-.2-.707-.7.026-2.239-.283-2.063,1.969-2.059,1.027,0,2.054.016,3.081,0,.534-.008.814.187.811.752C-772.05,241.751-771.834,241.422-773.907,241.44Z" transform="translate(-16.569 -30.539)" fill="#fff"/>
    <g id="Group_146" data-name="Group 146" transform="translate(-791.883 202.818)">
      <path id="Path_388" data-name="Path 388" d="M-707.332,219.713c-.72-.114-1.446-.2-2.167-.31a2.806,2.806,0,0,1-.7-.187c-.445-.2-.88-.44-1.319-.661-.04.3-.087.647-.126.951a7.565,7.565,0,0,1,.865.527,1.647,1.647,0,0,0,.723.234c.679.087,1.363.138,2.129.211a5.711,5.711,0,0,1-.967,2.407,1.231,1.231,0,0,0-.248.595,11.15,11.15,0,0,1-1.459,4.779,2.36,2.36,0,0,0-.184.746c-.14.791-.269,1.584-.437,2.575l-.594-.338a1.8,1.8,0,0,1-.739.647c.14.069.281.141.421.219,1.341.748,1.4.67,1.93-.774.077-.654.145-1.31.237-1.963a1.862,1.862,0,0,1,.191-.635,13.232,13.232,0,0,0,1.588-5.074,2.7,2.7,0,0,1,.234-.694c.35-.863.714-1.721,1.059-2.586C-706.733,219.973-706.962,219.771-707.332,219.713Z" transform="translate(718.52 -216.394)" fill="#fff"/>
      <path id="Path_389" data-name="Path 389" d="M-753.962,203.512a6.671,6.671,0,0,1-1.043-.546,1.532,1.532,0,0,0-.193-.069c-.376-.174-.629-.06-.718.339-.022.1-.043.2-.065.3C-755.448,203.514-754.745,203.5-753.962,203.512Z" transform="translate(755.981 -202.818)" fill="#fff"/>
    </g>
  </g>
</svg>
