<svg xmlns="http://www.w3.org/2000/svg" width="56" height="20" viewBox="0 0 56 20">
  <defs>
    <style>
      .cls-1, .cls-2 {
        fill: #0094ff;
      }

      .cls-1 {
        fill-rule: evenodd;
      }

      .cls-2 {
        font-size: 13px;
        text-anchor: middle;
        font-family: Poppins;
        font-weight: 700;
      }
    </style>
  </defs>
  <path class="cls-1" d="M58.213,5.094V4.344A2.349,2.349,0,0,0,55.865,2H50.1a2.349,2.349,0,0,0-2.348,2.344v0.75H58.213Zm-9.519,6.875v5.094a0.939,0.939,0,0,0,.939.938h6.7a0.939,0.939,0,0,0,.939-0.937V11.969H48.695Zm5.542,4h-2.5a0.469,0.469,0,1,1,0-.937h2.5A0.469,0.469,0,1,1,54.237,15.969Zm0-2h-2.5a0.469,0.469,0,1,1,0-.937h2.5A0.469,0.469,0,1,1,54.237,13.969Zm4.415-7.938h-11.3A2.349,2.349,0,0,0,45,8.375v3.75a2.349,2.349,0,0,0,2.348,2.344h0.407v-2.5H47.474a0.469,0.469,0,1,1,0-.937H58.5a0.469,0.469,0,1,1,0,.938H58.213v2.5h0.438A2.349,2.349,0,0,0,61,12.125V8.375A2.349,2.349,0,0,0,58.652,6.031ZM48.977,8.969h-1.5a0.469,0.469,0,1,1,0-.937h1.5A0.469,0.469,0,1,1,48.977,8.969Z" transform="translate(-5)"/>
  <text id="Print" class="cls-2" transform="translate(16.818 13.196) scale(1.089)">Print</text>
</svg>
