<?xml version="1.0" encoding="utf-8"?>
<!-- Generator: Adobe Illustrator 24.2.1, SVG Export Plug-In . SVG Version: 6.00 Build 0)  -->
<svg version="1.1" id="Layer_1" xmlns="http://www.w3.org/2000/svg" xmlns:xlink="http://www.w3.org/1999/xlink" x="0px" y="0px"
	 viewBox="0 0 122.5 20" style="enable-background:new 0 0 122.5 20;" xml:space="preserve">
<style type="text/css">
	.st0{fill:#0071DC;}
</style>
<g>
	<g>
		<path class="st0" d="M10,14C10,14.1,10,14.1,10,14c0,0.1-0.1,0.1-0.1,0.2c0,0-0.1,0-0.2,0c-0.1,0-0.2,0-0.3,0c-0.1,0-0.2,0-0.3,0
			c-0.1,0-0.1,0-0.2,0c0,0-0.1,0-0.1-0.1c0,0,0-0.1-0.1-0.1L8,12c-0.1-0.2-0.2-0.4-0.3-0.6s-0.2-0.3-0.3-0.5
			c-0.1-0.1-0.3-0.2-0.5-0.3c-0.2-0.1-0.4-0.1-0.7-0.1H5.5V14c0,0,0,0.1,0,0.1c0,0,0,0-0.1,0.1c0,0-0.1,0-0.2,0c-0.1,0-0.2,0-0.3,0
			s-0.2,0-0.3,0c-0.1,0-0.1,0-0.2,0c0,0-0.1,0-0.1-0.1c0,0,0-0.1,0-0.1V6.3c0-0.2,0-0.3,0.1-0.4c0.1-0.1,0.2-0.1,0.3-0.1h1.8
			c0.2,0,0.4,0,0.5,0c0.1,0,0.3,0,0.4,0C7.8,6,8.1,6.1,8.4,6.2S8.8,6.5,9,6.7S9.3,7,9.4,7.3c0.1,0.2,0.1,0.5,0.1,0.8
			c0,0.3,0,0.5-0.1,0.8C9.3,9,9.2,9.2,9.1,9.4C8.9,9.6,8.8,9.7,8.6,9.9c-0.2,0.1-0.4,0.2-0.7,0.3c0.1,0.1,0.3,0.1,0.4,0.2
			s0.2,0.2,0.3,0.3s0.2,0.3,0.3,0.4c0.1,0.2,0.2,0.4,0.3,0.6l0.7,1.8c0.1,0.2,0.1,0.3,0.1,0.3C10,14,10,14,10,14z M8.3,8.2
			c0-0.3-0.1-0.6-0.2-0.8C8,7.1,7.7,7,7.4,6.9C7.3,6.8,7.2,6.8,7,6.8c-0.1,0-0.3,0-0.5,0H5.5v2.8h1.1c0.3,0,0.5,0,0.8-0.1
			c0.2-0.1,0.4-0.2,0.5-0.3c0.1-0.1,0.2-0.3,0.3-0.4C8.3,8.6,8.3,8.4,8.3,8.2z"/>
		<path class="st0" d="M16.2,10.9c0,0.2,0,0.3-0.1,0.4c-0.1,0.1-0.2,0.1-0.3,0.1H12c0,0.3,0,0.6,0.1,0.9c0.1,0.3,0.2,0.5,0.3,0.7
			c0.2,0.2,0.3,0.3,0.6,0.4s0.5,0.1,0.9,0.1c0.3,0,0.5,0,0.7-0.1s0.4-0.1,0.6-0.2c0.2-0.1,0.3-0.1,0.4-0.2s0.2-0.1,0.2-0.1
			c0,0,0.1,0,0.1,0c0,0,0,0,0.1,0.1c0,0,0,0.1,0,0.1s0,0.1,0,0.2c0,0.1,0,0.1,0,0.1c0,0,0,0.1,0,0.1s0,0.1,0,0.1c0,0,0,0-0.1,0.1
			c0,0-0.1,0.1-0.2,0.1c-0.1,0.1-0.3,0.1-0.5,0.2c-0.2,0.1-0.4,0.1-0.6,0.1c-0.2,0-0.5,0.1-0.8,0.1c-0.5,0-0.9-0.1-1.3-0.2
			c-0.4-0.1-0.7-0.3-0.9-0.6c-0.2-0.3-0.4-0.6-0.6-1c-0.1-0.4-0.2-0.9-0.2-1.4c0-0.5,0.1-0.9,0.2-1.3s0.3-0.7,0.6-1
			c0.2-0.3,0.5-0.5,0.9-0.6C12.8,8,13.2,8,13.6,8c0.5,0,0.8,0.1,1.2,0.2s0.6,0.3,0.8,0.6s0.4,0.5,0.5,0.9c0.1,0.3,0.1,0.7,0.1,1.1
			V10.9z M15.1,10.6c0-0.6-0.1-1-0.4-1.3c-0.3-0.3-0.6-0.5-1.2-0.5c-0.3,0-0.5,0-0.7,0.1c-0.2,0.1-0.4,0.2-0.5,0.4
			c-0.1,0.2-0.2,0.4-0.3,0.6C12,10.1,12,10.4,12,10.6H15.1z"/>
		<path class="st0" d="M22,13.2c0,0.1,0,0.1,0,0.2c0,0.1,0,0.1,0,0.1c0,0,0,0.1,0,0.1c0,0,0,0.1-0.1,0.1s-0.1,0.1-0.3,0.2
			c-0.1,0.1-0.3,0.2-0.4,0.2s-0.3,0.1-0.5,0.2s-0.4,0.1-0.6,0.1c-0.4,0-0.8-0.1-1.1-0.2c-0.3-0.1-0.6-0.3-0.8-0.6
			c-0.2-0.3-0.4-0.6-0.5-1c-0.1-0.4-0.2-0.8-0.2-1.3c0-0.6,0.1-1.1,0.2-1.5c0.1-0.4,0.3-0.7,0.6-1c0.2-0.3,0.5-0.5,0.9-0.6
			C19.4,8,19.7,8,20.1,8c0.2,0,0.4,0,0.5,0.1c0.2,0,0.3,0.1,0.5,0.1s0.3,0.1,0.4,0.2c0.1,0.1,0.2,0.1,0.2,0.2
			c0.1,0.1,0.1,0.1,0.1,0.1c0,0,0,0.1,0,0.1c0,0,0,0.1,0,0.1C22,9,22,9,22,9.1c0,0.2,0,0.3-0.1,0.4c0,0.1-0.1,0.1-0.1,0.1
			c-0.1,0-0.1,0-0.2-0.1c-0.1-0.1-0.2-0.1-0.3-0.2S20.9,9,20.7,9s-0.4-0.1-0.6-0.1c-0.5,0-0.9,0.2-1.2,0.6c-0.3,0.4-0.4,1-0.4,1.7
			c0,0.4,0,0.7,0.1,1c0.1,0.3,0.2,0.5,0.3,0.7c0.1,0.2,0.3,0.3,0.5,0.4c0.2,0.1,0.4,0.1,0.7,0.1c0.2,0,0.5,0,0.6-0.1
			c0.2-0.1,0.3-0.2,0.5-0.3c0.1-0.1,0.2-0.2,0.3-0.3c0.1-0.1,0.2-0.1,0.2-0.1c0,0,0.1,0,0.1,0c0,0,0,0,0.1,0.1c0,0,0,0.1,0,0.2
			S22,13.1,22,13.2z"/>
		<path class="st0" d="M28.3,10.9c0,0.2,0,0.3-0.1,0.4c-0.1,0.1-0.2,0.1-0.3,0.1h-3.8c0,0.3,0,0.6,0.1,0.9c0.1,0.3,0.2,0.5,0.3,0.7
			c0.2,0.2,0.3,0.3,0.6,0.4s0.5,0.1,0.9,0.1c0.3,0,0.5,0,0.7-0.1s0.4-0.1,0.6-0.2c0.2-0.1,0.3-0.1,0.4-0.2s0.2-0.1,0.2-0.1
			c0,0,0.1,0,0.1,0c0,0,0,0,0.1,0.1c0,0,0,0.1,0,0.1s0,0.1,0,0.2c0,0.1,0,0.1,0,0.1c0,0,0,0.1,0,0.1s0,0.1,0,0.1c0,0,0,0-0.1,0.1
			c0,0-0.1,0.1-0.2,0.1c-0.1,0.1-0.3,0.1-0.5,0.2c-0.2,0.1-0.4,0.1-0.6,0.1c-0.2,0-0.5,0.1-0.8,0.1c-0.5,0-0.9-0.1-1.3-0.2
			c-0.4-0.1-0.7-0.3-0.9-0.6c-0.2-0.3-0.4-0.6-0.6-1c-0.1-0.4-0.2-0.9-0.2-1.4c0-0.5,0.1-0.9,0.2-1.3s0.3-0.7,0.6-1
			c0.2-0.3,0.5-0.5,0.9-0.6C25,8,25.4,8,25.8,8C26.2,8,26.6,8,27,8.2s0.6,0.3,0.8,0.6s0.4,0.5,0.5,0.9c0.1,0.3,0.1,0.7,0.1,1.1V10.9
			z M27.3,10.6c0-0.6-0.1-1-0.4-1.3c-0.3-0.3-0.6-0.5-1.2-0.5c-0.3,0-0.5,0-0.7,0.1c-0.2,0.1-0.4,0.2-0.5,0.4
			c-0.1,0.2-0.2,0.4-0.3,0.6c-0.1,0.2-0.1,0.4-0.1,0.7H27.3z"/>
		<path class="st0" d="M31.1,6.3c0,0.2,0,0.4-0.1,0.5c-0.1,0.1-0.3,0.1-0.5,0.1c-0.2,0-0.4,0-0.5-0.1s-0.1-0.3-0.1-0.5
			c0-0.2,0-0.4,0.1-0.5c0.1-0.1,0.3-0.1,0.5-0.1c0.2,0,0.4,0,0.5,0.1C31.1,5.9,31.1,6.1,31.1,6.3z M31,14.1C31,14.1,31,14.1,31,14.1
			c0,0.1-0.1,0.1-0.1,0.1c0,0-0.1,0-0.2,0c-0.1,0-0.2,0-0.3,0c-0.1,0-0.2,0-0.3,0c-0.1,0-0.1,0-0.2,0c0,0-0.1,0-0.1-0.1s0-0.1,0-0.1
			V8.3c0,0,0-0.1,0-0.1c0,0,0,0,0.1-0.1c0,0,0.1,0,0.2,0c0.1,0,0.2,0,0.3,0c0.1,0,0.2,0,0.3,0c0.1,0,0.1,0,0.2,0c0,0,0.1,0,0.1,0.1
			c0,0,0,0.1,0,0.1V14.1z"/>
		<path class="st0" d="M37.7,8.2C37.7,8.3,37.7,8.3,37.7,8.2c0,0.1,0,0.1,0,0.1s0,0,0,0.1s0,0.1,0,0.1l-2,5.5c0,0,0,0.1-0.1,0.1
			s-0.1,0.1-0.1,0.1c-0.1,0-0.1,0-0.2,0c-0.1,0-0.2,0-0.3,0c-0.1,0-0.2,0-0.3,0c-0.1,0-0.2,0-0.2,0c-0.1,0-0.1,0-0.1-0.1
			c0,0-0.1-0.1-0.1-0.1l-2-5.5c0-0.1,0-0.1,0-0.1c0,0,0-0.1,0-0.1c0,0,0,0,0,0c0,0,0-0.1,0-0.1s0,0,0.1-0.1c0,0,0.1,0,0.2,0
			c0.1,0,0.1,0,0.2,0c0.1,0,0.2,0,0.3,0s0.1,0,0.2,0c0,0,0.1,0,0.1,0.1c0,0,0,0.1,0.1,0.1L35,13l0,0.1l0-0.1l1.6-4.8
			c0,0,0-0.1,0-0.1s0.1,0,0.1-0.1c0,0,0.1,0,0.2,0s0.2,0,0.3,0c0.1,0,0.2,0,0.2,0s0.1,0,0.2,0S37.7,8.1,37.7,8.2
			C37.7,8.2,37.7,8.2,37.7,8.2z"/>
		<path class="st0" d="M43.8,10.9c0,0.2,0,0.3-0.1,0.4c-0.1,0.1-0.2,0.1-0.3,0.1h-3.8c0,0.3,0,0.6,0.1,0.9c0.1,0.3,0.2,0.5,0.3,0.7
			c0.2,0.2,0.3,0.3,0.6,0.4s0.5,0.1,0.9,0.1c0.3,0,0.5,0,0.7-0.1s0.4-0.1,0.6-0.2c0.2-0.1,0.3-0.1,0.4-0.2s0.2-0.1,0.2-0.1
			c0,0,0.1,0,0.1,0c0,0,0,0,0.1,0.1c0,0,0,0.1,0,0.1s0,0.1,0,0.2c0,0.1,0,0.1,0,0.1c0,0,0,0.1,0,0.1s0,0.1,0,0.1c0,0,0,0-0.1,0.1
			c0,0-0.1,0.1-0.2,0.1c-0.1,0.1-0.3,0.1-0.5,0.2c-0.2,0.1-0.4,0.1-0.6,0.1c-0.2,0-0.5,0.1-0.8,0.1c-0.5,0-0.9-0.1-1.3-0.2
			c-0.4-0.1-0.7-0.3-0.9-0.6c-0.2-0.3-0.4-0.6-0.6-1c-0.1-0.4-0.2-0.9-0.2-1.4c0-0.5,0.1-0.9,0.2-1.3s0.3-0.7,0.6-1
			c0.2-0.3,0.5-0.5,0.9-0.6C40.4,8,40.8,8,41.2,8c0.5,0,0.8,0.1,1.2,0.2s0.6,0.3,0.8,0.6s0.4,0.5,0.5,0.9c0.1,0.3,0.1,0.7,0.1,1.1
			V10.9z M42.7,10.6c0-0.6-0.1-1-0.4-1.3c-0.3-0.3-0.6-0.5-1.2-0.5c-0.3,0-0.5,0-0.7,0.1C40.3,9,40.1,9.2,40,9.3
			c-0.1,0.2-0.2,0.4-0.3,0.6c-0.1,0.2-0.1,0.4-0.1,0.7H42.7z"/>
		<path class="st0" d="M53.6,8.3c0,0.4-0.1,0.8-0.2,1.1c-0.1,0.3-0.3,0.6-0.6,0.9c-0.3,0.2-0.6,0.4-0.9,0.5C51.5,11,51.1,11,50.5,11
			h-0.9v3c0,0,0,0.1,0,0.1c0,0,0,0-0.1,0.1c0,0-0.1,0-0.2,0c-0.1,0-0.2,0-0.3,0s-0.2,0-0.3,0c-0.1,0-0.1,0-0.2,0c0,0-0.1,0-0.1-0.1
			c0,0,0-0.1,0-0.1V6.4c0-0.2,0-0.3,0.1-0.4c0.1-0.1,0.2-0.1,0.3-0.1h1.8c0.2,0,0.4,0,0.5,0s0.4,0,0.6,0.1s0.5,0.1,0.7,0.3
			c0.2,0.1,0.4,0.3,0.6,0.5c0.2,0.2,0.3,0.4,0.4,0.7C53.6,7.7,53.6,8,53.6,8.3z M52.4,8.4c0-0.3-0.1-0.6-0.2-0.9
			C52.1,7.3,52,7.2,51.8,7c-0.2-0.1-0.4-0.2-0.6-0.2c-0.2,0-0.4,0-0.6,0h-1v3.3h1c0.3,0,0.6,0,0.8-0.1s0.4-0.2,0.6-0.4
			c0.2-0.2,0.3-0.3,0.3-0.5C52.4,8.9,52.4,8.7,52.4,8.4z"/>
		<path class="st0" d="M59.3,14.1c0,0.1,0,0.1-0.1,0.1c0,0-0.1,0-0.1,0.1s-0.1,0-0.3,0c-0.1,0-0.2,0-0.3,0c-0.1,0-0.1,0-0.1-0.1
			c0,0,0-0.1,0-0.1v-0.6c-0.3,0.3-0.5,0.5-0.8,0.6c-0.3,0.2-0.6,0.2-1,0.2c-0.3,0-0.6,0-0.8-0.1c-0.2-0.1-0.5-0.2-0.6-0.3
			s-0.3-0.3-0.4-0.6s-0.1-0.5-0.1-0.7c0-0.3,0.1-0.6,0.2-0.9c0.1-0.2,0.3-0.4,0.6-0.6c0.2-0.2,0.6-0.3,0.9-0.4
			c0.4-0.1,0.8-0.1,1.2-0.1h0.8v-0.5c0-0.2,0-0.4-0.1-0.6c0-0.2-0.1-0.3-0.2-0.4c-0.1-0.1-0.2-0.2-0.4-0.3c-0.2-0.1-0.4-0.1-0.6-0.1
			c-0.3,0-0.5,0-0.7,0.1C56,9,55.8,9.1,55.6,9.1s-0.3,0.1-0.4,0.2c-0.1,0.1-0.2,0.1-0.2,0.1c0,0-0.1,0-0.1,0c0,0,0,0-0.1-0.1
			c0,0,0-0.1,0-0.1c0-0.1,0-0.1,0-0.2c0-0.1,0-0.2,0-0.3c0-0.1,0.1-0.1,0.1-0.2s0.2-0.1,0.3-0.2c0.1-0.1,0.3-0.1,0.5-0.2
			c0.2-0.1,0.4-0.1,0.6-0.2C56.5,8,56.8,8,57,8c0.4,0,0.8,0,1.1,0.1c0.3,0.1,0.5,0.2,0.7,0.4c0.2,0.2,0.3,0.4,0.4,0.7
			c0.1,0.3,0.1,0.6,0.1,0.9V14.1z M58.2,11.4h-0.9c-0.3,0-0.5,0-0.8,0.1c-0.2,0-0.4,0.1-0.5,0.2s-0.2,0.2-0.3,0.3
			c-0.1,0.1-0.1,0.3-0.1,0.5c0,0.3,0.1,0.5,0.3,0.7c0.2,0.2,0.5,0.3,0.8,0.3c0.3,0,0.5-0.1,0.8-0.2s0.5-0.4,0.8-0.7V11.4z"/>
		<path class="st0" d="M69.8,14.1C69.8,14.1,69.8,14.1,69.8,14.1c0,0.1-0.1,0.1-0.1,0.1c0,0-0.1,0-0.2,0c-0.1,0-0.2,0-0.3,0
			c-0.1,0-0.2,0-0.3,0c-0.1,0-0.1,0-0.2,0c0,0-0.1,0-0.1-0.1c0,0,0-0.1,0-0.1v-3.5c0-0.2,0-0.5-0.1-0.7c0-0.2-0.1-0.4-0.2-0.5
			c-0.1-0.1-0.2-0.3-0.4-0.3c-0.1-0.1-0.3-0.1-0.5-0.1c-0.2,0-0.5,0.1-0.7,0.3C66.6,9.4,66.3,9.6,66,10v4.1c0,0,0,0.1,0,0.1
			s0,0-0.1,0.1c0,0-0.1,0-0.2,0c-0.1,0-0.2,0-0.3,0c-0.1,0-0.2,0-0.3,0c-0.1,0-0.1,0-0.2,0c0,0-0.1,0-0.1-0.1s0-0.1,0-0.1v-3.5
			c0-0.2,0-0.5-0.1-0.7c0-0.2-0.1-0.4-0.2-0.5c-0.1-0.1-0.2-0.3-0.4-0.3c-0.1-0.1-0.3-0.1-0.5-0.1c-0.2,0-0.5,0.1-0.7,0.3
			c-0.2,0.2-0.5,0.5-0.8,0.8v4.1c0,0,0,0.1,0,0.1s0,0-0.1,0.1c0,0-0.1,0-0.2,0c-0.1,0-0.2,0-0.3,0c-0.1,0-0.2,0-0.3,0
			c-0.1,0-0.1,0-0.2,0c0,0-0.1,0-0.1-0.1s0-0.1,0-0.1V8.3c0,0,0-0.1,0-0.1c0,0,0,0,0.1-0.1c0,0,0.1,0,0.1,0s0.1,0,0.2,0
			c0.1,0,0.2,0,0.2,0c0.1,0,0.1,0,0.1,0c0,0,0.1,0,0.1,0.1s0,0.1,0,0.1V9c0.3-0.4,0.6-0.6,1-0.8C63.4,8,63.7,8,64.1,8
			c0.2,0,0.5,0,0.6,0.1c0.2,0.1,0.4,0.1,0.5,0.2c0.1,0.1,0.3,0.2,0.4,0.4s0.2,0.3,0.3,0.5c0.2-0.2,0.4-0.4,0.6-0.5
			c0.2-0.1,0.3-0.3,0.5-0.4s0.3-0.2,0.5-0.2C67.5,8,67.7,8,67.8,8c0.4,0,0.7,0.1,0.9,0.2c0.3,0.1,0.5,0.3,0.6,0.5
			c0.2,0.2,0.3,0.5,0.3,0.8c0.1,0.3,0.1,0.6,0.1,0.9V14.1z"/>
		<path class="st0" d="M76.7,10.9c0,0.2,0,0.3-0.1,0.4c-0.1,0.1-0.2,0.1-0.3,0.1h-3.8c0,0.3,0,0.6,0.1,0.9s0.2,0.5,0.3,0.7
			c0.2,0.2,0.3,0.3,0.6,0.4c0.2,0.1,0.5,0.1,0.9,0.1c0.3,0,0.5,0,0.7-0.1s0.4-0.1,0.6-0.2s0.3-0.1,0.4-0.2s0.2-0.1,0.2-0.1
			c0,0,0.1,0,0.1,0c0,0,0,0,0.1,0.1s0,0.1,0,0.1s0,0.1,0,0.2c0,0.1,0,0.1,0,0.1c0,0,0,0.1,0,0.1c0,0,0,0.1,0,0.1c0,0,0,0-0.1,0.1
			c0,0-0.1,0.1-0.2,0.1s-0.3,0.1-0.5,0.2s-0.4,0.1-0.6,0.1c-0.2,0-0.5,0.1-0.8,0.1c-0.5,0-0.9-0.1-1.3-0.2s-0.7-0.3-0.9-0.6
			s-0.4-0.6-0.6-1c-0.1-0.4-0.2-0.9-0.2-1.4c0-0.5,0.1-0.9,0.2-1.3s0.3-0.7,0.6-1c0.2-0.3,0.5-0.5,0.9-0.6C73.3,8,73.7,8,74.2,8
			C74.6,8,75,8,75.3,8.2s0.6,0.3,0.8,0.6s0.4,0.5,0.5,0.9c0.1,0.3,0.1,0.7,0.1,1.1V10.9z M75.6,10.6c0-0.6-0.1-1-0.4-1.3
			C75,9,74.6,8.8,74.1,8.8c-0.3,0-0.5,0-0.7,0.1C73.2,9,73,9.2,72.9,9.3c-0.1,0.2-0.2,0.4-0.3,0.6c-0.1,0.2-0.1,0.4-0.1,0.7H75.6z"
			/>
		<path class="st0" d="M83.3,14.1C83.3,14.1,83.3,14.1,83.3,14.1c0,0.1-0.1,0.1-0.1,0.1c0,0-0.1,0-0.2,0c-0.1,0-0.2,0-0.3,0
			c-0.1,0-0.2,0-0.3,0c-0.1,0-0.1,0-0.2,0c0,0-0.1,0-0.1-0.1c0,0,0-0.1,0-0.1v-3.4c0-0.3,0-0.6-0.1-0.8c-0.1-0.2-0.1-0.4-0.2-0.5
			c-0.1-0.1-0.2-0.3-0.4-0.3c-0.2-0.1-0.3-0.1-0.5-0.1c-0.3,0-0.5,0.1-0.8,0.3C80,9.4,79.7,9.6,79.4,10v4.1c0,0,0,0.1,0,0.1
			c0,0,0,0-0.1,0.1c0,0-0.1,0-0.2,0c-0.1,0-0.2,0-0.3,0c-0.1,0-0.2,0-0.3,0c-0.1,0-0.1,0-0.2,0c0,0-0.1,0-0.1-0.1c0,0,0-0.1,0-0.1
			V8.3c0,0,0-0.1,0-0.1s0,0,0.1-0.1c0,0,0.1,0,0.1,0s0.1,0,0.2,0c0.1,0,0.2,0,0.2,0s0.1,0,0.1,0c0,0,0.1,0,0.1,0.1c0,0,0,0.1,0,0.1
			V9c0.3-0.4,0.7-0.6,1-0.8C80.6,8,80.9,8,81.2,8c0.4,0,0.7,0.1,1,0.2c0.3,0.1,0.5,0.3,0.6,0.5c0.2,0.2,0.3,0.5,0.4,0.8
			c0.1,0.3,0.1,0.6,0.1,1.1V14.1z"/>
		<path class="st0" d="M88.1,13.6c0,0.1,0,0.2,0,0.3c0,0.1,0,0.1-0.1,0.2s-0.1,0.1-0.2,0.1c-0.1,0-0.1,0.1-0.2,0.1s-0.2,0-0.3,0
			c-0.1,0-0.2,0-0.3,0c-0.3,0-0.6,0-0.8-0.1s-0.4-0.2-0.5-0.4s-0.2-0.4-0.3-0.6s-0.1-0.5-0.1-0.9V9h-0.8c-0.1,0-0.1,0-0.2-0.1
			c0-0.1-0.1-0.2-0.1-0.3c0-0.1,0-0.2,0-0.2s0-0.1,0-0.1c0,0,0-0.1,0.1-0.1c0,0,0.1,0,0.1,0h0.8V6.7c0,0,0-0.1,0-0.1
			c0,0,0,0,0.1-0.1c0,0,0.1,0,0.2,0c0.1,0,0.2,0,0.3,0c0.1,0,0.2,0,0.3,0c0.1,0,0.1,0,0.2,0c0,0,0.1,0,0.1,0.1c0,0,0,0.1,0,0.1v1.4
			h1.5c0,0,0.1,0,0.1,0c0,0,0,0,0.1,0.1c0,0,0,0.1,0,0.1c0,0.1,0,0.1,0,0.2c0,0.2,0,0.3-0.1,0.3C88,8.9,88,9,87.9,9h-1.5v3.2
			c0,0.4,0.1,0.7,0.2,0.9s0.3,0.3,0.6,0.3c0.1,0,0.2,0,0.3,0c0.1,0,0.1,0,0.2-0.1c0.1,0,0.1,0,0.2-0.1s0.1,0,0.1,0c0,0,0,0,0.1,0
			c0,0,0,0,0,0.1c0,0,0,0.1,0,0.1C88.1,13.5,88.1,13.6,88.1,13.6z"/>
	</g>
	<g>
		<path class="st0" d="M93.9,9.7c0.9,0.5,1.7,1.1,2.5,1.6c1.2,0.8,2.3,1.6,3.6,2.2c0.1,0,0.2,0.3,0.2,0.4c-0.1,0.2-0.2,0.2-0.5,0.2
			c-1.1-0.5-2.1-1.2-3.1-1.8c-0.9-0.6-1.9-1.2-2.9-1.8c-0.5-0.3-1.1-0.4-1.6-0.1c-0.4,0.2-0.4,0.3-0.2,0.7c0.4,0.7,0.9,1.2,1.5,1.7
			c1.2,0.9,2.3,1.9,3.5,2.7c1.6,1,3.3,2,4.9,2.9c1.1,0.6,2.2,0.6,3.3,0.1c2.2-1,4.5-1.7,6.9-2.3c1.3-0.3,2.6-0.3,3.9-0.3
			c0.2,0,0.4,0,0.7,0c0-0.2,0-0.5,0-0.7c0-1.6,0-3.1,0-4.7c0-0.2-0.1-0.3-0.3-0.3c-1.3,0-2.5-0.4-3.8-0.7c-1.3-0.3-2.6-0.3-3.9,0.2
			c-1.2,0.5-2.5,0.6-3.8,0.5c-1.4-0.1-2.8,0-4.2,0.1c-0.2,0-0.5,0.1-0.7,0.2c-0.3,0.1-0.6,0.3-0.7,0.7c-0.1,0.4,0.1,0.8,0.5,1
			c0.6,0.3,1.2,0.6,1.8,0.8c1.1,0.3,2.2,0.3,3.4,0.2c1-0.1,2,0,3,0.3c0.2,0.1,0.4,0.2,0.3,0.4c0,0.1-0.3,0.2-0.4,0.2
			c-0.7-0.1-1.3-0.2-2-0.3c-0.6,0-1.2,0.1-1.8,0.1c-1.5,0-3.1-0.2-4.4-1c-0.5-0.4-1-0.8-1-1.5c0-0.1-0.1-0.2-0.2-0.2
			c-1-0.6-1.9-1.1-2.9-1.6C94.9,8.9,94.5,9,93.9,9.7z"/>
		<path class="st0" d="M114.6,3.8c-6.4,3.3-14.5,3.1-19.8,0c0.5-0.8,1-1.7,1.5-2.5c5.5,2.7,11,3,16.6,0C113.5,2.1,114.1,3,114.6,3.8
			z M102.9,4.8c0.5,0.7,3.1,0.7,4,0.1C106.2,4.2,103.7,4.2,102.9,4.8z"/>
		<path class="st0" d="M117.4,9.9c0-0.9,0.7-1.5,1.5-1.5c0.9,0,1.6,0.7,1.7,1.7c0,2,0,4,0,5.9c0,0.2,0,0.4-0.1,0.6
			c-0.2,0.8-0.9,1.2-1.8,1.2c-0.7-0.1-1.3-0.8-1.3-1.5c0-1.1,0-2.1,0-3.2C117.4,12,117.4,10.9,117.4,9.9z M119,16.7
			c0.5,0,1.1-0.5,1.1-1.1c0-0.5-0.5-1-1.1-1c-0.6,0-1,0.4-1,1.1C118,16.3,118.4,16.7,119,16.7z"/>
		<path class="st0" d="M114.6,5.5c0-0.1,0-0.1-0.1-0.2c-0.1-0.2-0.3-0.4-0.4-0.6c-6.3,2.6-12.5,2.8-18.8,0C95.2,5,95,5.3,94.8,5.5
			c2,1.1,4.1,1.8,6.3,2.2C107,8.6,112.2,6.9,114.6,5.5z"/>
		<path class="st0" d="M94.8,7.3c0.8,0.4,1.6,0.8,2.5,1.1c1.3,0.4,2.6,0.7,4,1.1c0.2,0.1,0.5,0,0.7,0c1.3,0,2.5,0.1,3.8,0.1
			c0.9,0,1.8-0.1,2.7-0.5c0.8-0.3,1.5-0.5,2.4-0.5c0.6,0,1.1-0.1,1.6-0.3c0.7-0.3,1.5-0.6,2.2-0.9c0-0.1,0-0.1-0.1-0.2
			c-0.4-0.7-0.4-0.7-1.2-0.3c-1.8,0.8-3.7,1.3-5.7,1.6c-1.7,0.2-3.3,0.3-5,0.2c-2.4-0.2-4.7-0.8-6.9-1.9c-0.4-0.2-0.5-0.1-0.7,0.2
			C95,7,94.9,7.1,94.8,7.3z"/>
		<path class="st0" d="M99.7,9.8C98.9,9.6,98,9.3,97.2,9c-0.1,0-0.2,0-0.5,0.1c0.8,0.5,1.5,0.9,2.3,1.3C99.2,10.2,99.5,10,99.7,9.8z
			"/>
		<circle class="st0" cx="119" cy="15.7" r="0.6"/>
	</g>
</g>
</svg>
