<svg xmlns="http://www.w3.org/2000/svg" width="23" height="21" viewBox="0 0 23 21">
  <defs>
    <style>
      .cls-1 {
        fill: #0073e0;
        fill-rule: evenodd;
      }
    </style>
  </defs>
  <path id="remark" class="cls-1" d="M327.507,265.073a3.325,3.325,0,0,1-.383.43q-2.1,2.088-4.22,4.164a1.941,1.941,0,0,1-.765.442c-0.986.3-1.984,0.564-2.98,0.828a0.831,0.831,0,0,1-1.1-1.111c0.294-1,.6-1.989.917-2.975a1.516,1.516,0,0,1,.357-0.583c1.465-1.466,2.941-2.92,4.411-4.374a2.551,2.551,0,0,1,1.843-.74,2.414,2.414,0,0,1,2.139,1.365A2.349,2.349,0,0,1,327.507,265.073Zm-3.941-.7c-0.742.741-1.447,1.533-2.247,2.217a3.914,3.914,0,0,0-1.242,2.392c0.367-.1.679-0.207,1-0.265a2.013,2.013,0,0,0,1.112-.641c0.735-.76,1.5-1.491,2.249-2.236,0.1-.1.2-0.209,0.3-0.311Zm2.653-1.168a0.777,0.777,0,0,0-.131-0.16,0.823,0.823,0,0,0-1.157,0,0.775,0.775,0,0,0-.123.157l1.153,1.086A0.784,0.784,0,0,0,326.219,263.2Zm-7.814-.077a0.828,0.828,0,0,1-.2,0c-0.826,0-1.652,0-2.479,0h-6.479a0.826,0.826,0,1,1,0-1.64c1.652,0,7.305,0,8.958,0A0.826,0.826,0,1,1,318.4,263.127Zm3.145-6.573H309.287a0.834,0.834,0,1,1,0-1.642c1.367,0,6.73.006,8.1,0.006,1.4,0,2.806,0,4.21,0a0.815,0.815,0,0,1,.888.735,0.783,0.783,0,0,1-.007.205A0.829,0.829,0,0,1,321.55,256.554Zm0.933,2.465a0.805,0.805,0,0,1-.786.826,0.77,0.77,0,0,1-.1,0c-1.395.007-2.785,0-4.176,0s-6.807.007-8.21,0a0.818,0.818,0,0,1-.894-0.732,0.834,0.834,0,0,1,.843-0.906h12.47a0.8,0.8,0,0,1,.848.747C322.483,258.975,322.483,259,322.483,259.019Zm2.51,0.116a0.85,0.85,0,0,1-.851-0.989v-4.673a1.658,1.658,0,0,0-1.468-1.833,1.7,1.7,0,0,0-.371,0H308.5a1.668,1.668,0,0,0-1.837,1.806q-0.009,7.06,0,14.119a1.677,1.677,0,0,0,1.84,1.8h6.441a0.835,0.835,0,1,1-.014,1.643c-0.842,0-5.683,0-6.524,0a3.3,3.3,0,0,1-3.4-3.188c0-.063,0-0.125,0-0.188-0.019-2.383-.008-4.763-0.008-7.142v-6.936a3.324,3.324,0,0,1,3.071-3.564,3.541,3.541,0,0,1,.515,0h13.681a3.3,3.3,0,0,1,3.53,3.045,3.158,3.158,0,0,1,0,.435q0.006,2.34,0,4.678A0.839,0.839,0,0,1,324.993,259.135Z" transform="translate(-305 -250)"/>
</svg>
