<svg xmlns="http://www.w3.org/2000/svg" width="20" height="20" viewBox="0 0 20 20">
  <defs>
    <style>
      .cls-1 {
        fill: #4197ff;
        fill-rule: evenodd;
      }
    </style>
  </defs>
  <path id="Scheme" class="cls-1" d="M94.674,215.537a0.44,0.44,0,1,0-.621-0.03A0.44,0.44,0,0,0,94.674,215.537Zm-0.18,3.725a0.439,0.439,0,1,0,.621.03A0.44,0.44,0,0,0,94.495,219.262Zm8.36-10.133a0.439,0.439,0,0,0-.622,0l-1.28,1.28a1.284,1.284,0,0,0-.248-0.09l-3.978-.982a1.325,1.325,0,0,0-1.252.346l-7.106,7.095a1.319,1.319,0,0,0,0,1.864l4.972,4.972a1.32,1.32,0,0,0,1.864,0l7.094-7.106a1.323,1.323,0,0,0,.347-1.252l-0.983-3.978a1.331,1.331,0,0,0-.089-0.248l1.28-1.28A0.44,0.44,0,0,0,102.855,209.129Zm-9.362,5.107a1.318,1.318,0,1,1-.09,1.862A1.32,1.32,0,0,1,93.493,214.236Zm2.184,6.327a1.318,1.318,0,1,1,.09-1.862A1.317,1.317,0,0,1,95.677,220.563Zm1.744-2.9-5.617.352H91.755a0.439,0.439,0,0,1-.006-0.877l5.617-.352A0.439,0.439,0,1,1,97.421,217.662Zm2.822-4.9a0.74,0.74,0,1,1,0-1.046h0A0.74,0.74,0,0,1,100.243,212.76Z" transform="translate(-85.5 -206.516)"/>
</svg>
