<?xml version="1.0" encoding="utf-8"?>
<!-- Generator: Adobe Illustrator 24.2.1, SVG Export Plug-In . SVG Version: 6.00 Build 0)  -->
<svg version="1.1" id="Layer_1" xmlns="http://www.w3.org/2000/svg" xmlns:xlink="http://www.w3.org/1999/xlink" x="0px" y="0px"
	 viewBox="0 0 130.1 20" style="enable-background:new 0 0 130.1 20;" xml:space="preserve">
<style type="text/css">
	.st0{fill:#0071DC;}
</style>
<g>
	<path class="st0" d="M5.7,14.5c-0.4-0.2-0.8-0.5-1.1-0.8c-0.3-0.4-0.4-0.8-0.4-1.3h1.5c0,0.4,0.2,0.7,0.4,0.9
		c0.3,0.2,0.6,0.3,1.1,0.3c0.5,0,0.8-0.1,1.1-0.3c0.3-0.2,0.4-0.5,0.4-0.9c0-0.3-0.1-0.5-0.2-0.7c-0.2-0.2-0.4-0.3-0.6-0.4
		c-0.2-0.1-0.6-0.2-1-0.3c-0.5-0.1-1-0.3-1.3-0.4c-0.3-0.1-0.6-0.4-0.9-0.7C4.4,9.5,4.3,9.1,4.3,8.6c0-0.5,0.1-0.9,0.4-1.3
		c0.2-0.4,0.6-0.6,1-0.8c0.4-0.2,0.9-0.3,1.5-0.3c0.8,0,1.5,0.2,2,0.6c0.5,0.4,0.8,1,0.9,1.7H8.5c0-0.3-0.2-0.6-0.4-0.8
		C7.8,7.5,7.5,7.4,7,7.4c-0.4,0-0.7,0.1-1,0.3C5.8,7.9,5.7,8.2,5.7,8.5c0,0.3,0.1,0.5,0.2,0.6c0.2,0.2,0.4,0.3,0.6,0.4
		c0.2,0.1,0.6,0.2,1,0.3c0.6,0.2,1,0.3,1.4,0.5s0.6,0.4,0.9,0.7c0.2,0.3,0.4,0.7,0.4,1.3c0,0.4-0.1,0.8-0.3,1.2
		c-0.2,0.4-0.6,0.7-1,0.9c-0.4,0.2-1,0.3-1.5,0.3C6.7,14.8,6.2,14.7,5.7,14.5z"/>
	<path class="st0" d="M17.7,11.9h-5.1c0,0.5,0.2,1,0.6,1.3c0.4,0.3,0.8,0.5,1.3,0.5c0.7,0,1.3-0.3,1.6-0.9h1.5
		c-0.2,0.6-0.6,1.1-1.1,1.5s-1.2,0.6-1.9,0.6c-0.6,0-1.2-0.1-1.7-0.4s-0.9-0.7-1.2-1.2c-0.3-0.5-0.4-1.1-0.4-1.8
		c0-0.7,0.1-1.3,0.4-1.8s0.7-0.9,1.2-1.2c0.5-0.3,1.1-0.4,1.7-0.4c0.6,0,1.2,0.1,1.7,0.4c0.5,0.3,0.9,0.7,1.1,1.1s0.4,1.1,0.4,1.7
		C17.8,11.4,17.8,11.7,17.7,11.9z M16.4,10.8c0-0.5-0.2-0.9-0.5-1.2c-0.4-0.3-0.8-0.5-1.3-0.5c-0.5,0-0.9,0.1-1.2,0.4
		c-0.3,0.3-0.5,0.7-0.6,1.2H16.4z"/>
	<path class="st0" d="M23.9,8.3c0.4,0.2,0.7,0.5,1,1c0.2,0.4,0.3,0.9,0.3,1.5v3.9h-1.4V11c0-0.6-0.1-1-0.4-1.4
		c-0.3-0.3-0.7-0.5-1.2-0.5c-0.5,0-0.9,0.2-1.2,0.5c-0.3,0.3-0.4,0.8-0.4,1.4v3.7h-1.4V8.1h1.4v0.8c0.2-0.3,0.5-0.5,0.9-0.6
		c0.3-0.2,0.7-0.2,1.1-0.2C23,7.9,23.5,8.1,23.9,8.3z"/>
	<path class="st0" d="M26.9,9.6c0.3-0.5,0.7-0.9,1.1-1.2c0.5-0.3,1-0.4,1.6-0.4c0.4,0,0.9,0.1,1.3,0.3s0.8,0.4,1,0.8V5.8h1.4v8.9
		h-1.4v-1c-0.2,0.3-0.5,0.6-0.9,0.8c-0.4,0.2-0.9,0.3-1.4,0.3c-0.6,0-1.1-0.1-1.6-0.4c-0.5-0.3-0.9-0.7-1.1-1.2
		c-0.3-0.5-0.4-1.1-0.4-1.8C26.5,10.7,26.6,10.1,26.9,9.6z M31.6,10.2c-0.2-0.3-0.4-0.6-0.7-0.8c-0.3-0.2-0.6-0.3-1-0.3
		s-0.7,0.1-1,0.3c-0.3,0.2-0.6,0.4-0.7,0.8s-0.3,0.7-0.3,1.2c0,0.5,0.1,0.9,0.3,1.2c0.2,0.3,0.4,0.6,0.7,0.8c0.3,0.2,0.6,0.3,1,0.3
		c0.4,0,0.7-0.1,1-0.3s0.5-0.4,0.7-0.8c0.2-0.3,0.3-0.7,0.3-1.2S31.8,10.5,31.6,10.2z"/>
	<path class="st0" d="M45,14.7h-1.4l-4.1-6.2v6.2h-1.4V6.3h1.4l4.1,6.2V6.3H45V14.7z"/>
	<path class="st0" d="M48,14.3c-0.5-0.3-0.9-0.7-1.2-1.2s-0.4-1.1-0.4-1.8c0-0.7,0.1-1.3,0.4-1.8C47.1,9,47.5,8.6,48,8.4
		c0.5-0.3,1.1-0.4,1.7-0.4s1.2,0.1,1.7,0.4C52,8.6,52.4,9,52.7,9.6s0.4,1.1,0.4,1.8s-0.2,1.3-0.5,1.8c-0.3,0.5-0.7,0.9-1.2,1.2
		c-0.5,0.3-1.1,0.4-1.7,0.4C49.1,14.8,48.5,14.6,48,14.3z M50.7,13.3c0.3-0.2,0.6-0.4,0.8-0.8c0.2-0.3,0.3-0.7,0.3-1.2
		c0-0.5-0.1-0.9-0.3-1.2c-0.2-0.3-0.4-0.6-0.7-0.8c-0.3-0.2-0.6-0.3-1-0.3c-0.4,0-0.7,0.1-1,0.3c-0.3,0.2-0.5,0.4-0.7,0.8
		c-0.2,0.3-0.3,0.7-0.3,1.2c0,0.7,0.2,1.3,0.5,1.6c0.4,0.4,0.8,0.6,1.4,0.6C50,13.6,50.4,13.5,50.7,13.3z"/>
	<path class="st0" d="M56.1,9.2v3.7c0,0.2,0.1,0.4,0.2,0.5c0.1,0.1,0.3,0.2,0.6,0.2h0.8v1.1h-1.1c-0.6,0-1.1-0.1-1.4-0.4
		c-0.3-0.3-0.5-0.8-0.5-1.4V9.2h-0.8V8.1h0.8V6.4h1.4v1.6h1.6v1.1H56.1z"/>
	<path class="st0" d="M59,6.9c-0.2-0.2-0.3-0.4-0.3-0.6s0.1-0.5,0.3-0.6s0.4-0.3,0.6-0.3c0.2,0,0.4,0.1,0.6,0.3s0.3,0.4,0.3,0.6
		s-0.1,0.5-0.3,0.6c-0.2,0.2-0.4,0.3-0.6,0.3C59.4,7.2,59.2,7.1,59,6.9z M60.3,8.1v6.6h-1.4V8.1H60.3z"/>
	<path class="st0" d="M64.9,9.2h-1.2v5.5h-1.4V9.2h-0.8V8.1h0.8V7.6c0-0.8,0.2-1.3,0.6-1.7c0.4-0.3,1-0.5,1.9-0.5v1.1
		c-0.4,0-0.7,0.1-0.9,0.2c-0.2,0.2-0.3,0.4-0.3,0.8v0.5h1.2V9.2z"/>
	<path class="st0" d="M66.2,6.9c-0.2-0.2-0.3-0.4-0.3-0.6s0.1-0.5,0.3-0.6s0.4-0.3,0.6-0.3c0.2,0,0.4,0.1,0.6,0.3s0.3,0.4,0.3,0.6
		s-0.1,0.5-0.3,0.6c-0.2,0.2-0.4,0.3-0.6,0.3C66.5,7.2,66.3,7.1,66.2,6.9z M67.5,8.1v6.6h-1.4V8.1H67.5z"/>
	<path class="st0" d="M69.2,9.6c0.3-0.5,0.7-0.9,1.1-1.2c0.5-0.3,1-0.4,1.7-0.4c0.8,0,1.5,0.2,2,0.6s0.9,0.9,1.1,1.6h-1.5
		c-0.1-0.3-0.3-0.6-0.6-0.8c-0.3-0.2-0.6-0.3-1-0.3c-0.6,0-1,0.2-1.3,0.6s-0.5,1-0.5,1.7s0.2,1.3,0.5,1.7c0.3,0.4,0.8,0.6,1.3,0.6
		c0.8,0,1.3-0.3,1.6-1h1.5c-0.2,0.7-0.6,1.2-1.1,1.6c-0.5,0.4-1.2,0.6-2,0.6c-0.6,0-1.2-0.1-1.7-0.4s-0.9-0.7-1.1-1.2
		c-0.3-0.5-0.4-1.1-0.4-1.8C68.8,10.7,68.9,10.1,69.2,9.6z"/>
	<path class="st0" d="M76.4,9.6c0.3-0.5,0.7-0.9,1.1-1.2c0.5-0.3,1-0.4,1.6-0.4c0.5,0,1,0.1,1.4,0.3s0.7,0.5,0.9,0.8v-1h1.4v6.6
		h-1.4v-1c-0.2,0.3-0.5,0.6-0.9,0.8c-0.4,0.2-0.9,0.3-1.4,0.3c-0.6,0-1.1-0.1-1.6-0.4c-0.5-0.3-0.8-0.7-1.1-1.2
		C76.1,12.6,76,12,76,11.3C76,10.7,76.1,10.1,76.4,9.6z M81.1,10.2c-0.2-0.3-0.4-0.6-0.7-0.8c-0.3-0.2-0.6-0.3-1-0.3
		c-0.4,0-0.7,0.1-1,0.3c-0.3,0.2-0.5,0.4-0.7,0.8c-0.2,0.3-0.3,0.7-0.3,1.2c0,0.5,0.1,0.9,0.3,1.2c0.2,0.3,0.4,0.6,0.7,0.8
		s0.6,0.3,1,0.3c0.4,0,0.7-0.1,1-0.3s0.5-0.4,0.7-0.8c0.2-0.3,0.3-0.7,0.3-1.2S81.3,10.5,81.1,10.2z"/>
	<path class="st0" d="M86.2,9.2v3.7c0,0.2,0.1,0.4,0.2,0.5c0.1,0.1,0.3,0.2,0.6,0.2h0.8v1.1h-1.1c-0.6,0-1.1-0.1-1.4-0.4
		c-0.3-0.3-0.5-0.8-0.5-1.4V9.2H84V8.1h0.8V6.4h1.4v1.6h1.6v1.1H86.2z"/>
	<path class="st0" d="M89.1,6.9c-0.2-0.2-0.3-0.4-0.3-0.6s0.1-0.5,0.3-0.6s0.4-0.3,0.6-0.3c0.2,0,0.4,0.1,0.6,0.3s0.3,0.4,0.3,0.6
		s-0.1,0.5-0.3,0.6c-0.2,0.2-0.4,0.3-0.6,0.3C89.5,7.2,89.3,7.1,89.1,6.9z M90.4,8.1v6.6h-1.4V8.1H90.4z"/>
	<path class="st0" d="M93.4,14.3c-0.5-0.3-0.9-0.7-1.2-1.2s-0.4-1.1-0.4-1.8c0-0.7,0.1-1.3,0.4-1.8c0.3-0.5,0.7-0.9,1.2-1.2
		c0.5-0.3,1.1-0.4,1.7-0.4s1.2,0.1,1.7,0.4c0.5,0.3,0.9,0.7,1.2,1.2s0.4,1.1,0.4,1.8s-0.2,1.3-0.5,1.8c-0.3,0.5-0.7,0.9-1.2,1.2
		c-0.5,0.3-1.1,0.4-1.7,0.4C94.5,14.8,93.9,14.6,93.4,14.3z M96.1,13.3c0.3-0.2,0.6-0.4,0.8-0.8c0.2-0.3,0.3-0.7,0.3-1.2
		c0-0.5-0.1-0.9-0.3-1.2c-0.2-0.3-0.4-0.6-0.7-0.8c-0.3-0.2-0.6-0.3-1-0.3c-0.4,0-0.7,0.1-1,0.3c-0.3,0.2-0.5,0.4-0.7,0.8
		c-0.2,0.3-0.3,0.7-0.3,1.2c0,0.7,0.2,1.3,0.5,1.6c0.4,0.4,0.8,0.6,1.4,0.6C95.5,13.6,95.8,13.5,96.1,13.3z"/>
	<path class="st0" d="M104.6,8.3c0.4,0.2,0.7,0.5,1,1c0.2,0.4,0.3,0.9,0.3,1.5v3.9h-1.4V11c0-0.6-0.1-1-0.4-1.4
		c-0.3-0.3-0.7-0.5-1.2-0.5c-0.5,0-0.9,0.2-1.2,0.5c-0.3,0.3-0.5,0.8-0.5,1.4v3.7h-1.4V8.1h1.4v0.8c0.2-0.3,0.5-0.5,0.9-0.6
		c0.3-0.2,0.7-0.2,1.1-0.2C103.7,7.9,104.2,8.1,104.6,8.3z"/>
</g>
<path class="st0" d="M124.6,2.8c-0.1-0.1-0.2-0.1-0.2,0L110,9.4c-0.1,0-0.1,0.1-0.1,0.2c0,0.1,0,0.2,0.1,0.2l4.1,2
	c0.1,0,0.2,0,0.2,0l4-3l-3.1,3.2c0,0-0.1,0.1-0.1,0.2l0.3,4c0,0.1,0.1,0.2,0.2,0.2c0,0,0,0,0.1,0c0.1,0,0.1,0,0.2-0.1l2.2-2.5
	l2.7,1.3c0.1,0,0.1,0,0.2,0c0.1,0,0.1-0.1,0.1-0.1l3.8-12C124.7,2.9,124.7,2.8,124.6,2.8z"/>
</svg>
