<svg xmlns="http://www.w3.org/2000/svg" width="22.001" height="22.029" viewBox="0 0 22.97 23">
  <defs>
    <style>
      .cls-1 {
        fill: #8c8c8c;
        fill-rule: evenodd;
      }
    </style>
  </defs>
  <path id="Shape_379_1" data-name="Shape 379 1" class="cls-1" d="M1199.23,141.751a4.582,4.582,0,0,1-2.66.263,4.6,4.6,0,0,1-3.63-3.629,4.614,4.614,0,0,1,1.96-4.743A4.618,4.618,0,1,1,1199.23,141.751Zm0.54-5.808a2.833,2.833,0,0,0-1.24-1.021,2.774,2.774,0,0,0-3.78,2.021,2.828,2.828,0,0,0,.16,1.6,2.762,2.762,0,0,0,4.51.9,2.77,2.77,0,0,0,.81-1.96A2.8,2.8,0,0,0,1199.77,135.943Zm8.09-.75a2.491,2.491,0,0,0,0,4.582,1.834,1.834,0,0,1,.98,1.006,1.888,1.888,0,0,1-.01,1.4l-0.01.012-0.85-.364-0.85-.353v-0.023a4.349,4.349,0,0,1-1.91-1.6,4.32,4.32,0,0,1,.02-4.776,4.325,4.325,0,0,1,1.92-1.588,4.428,4.428,0,0,1-4.71-.988,4.353,4.353,0,0,1-.95-4.7,4.407,4.407,0,0,1-4.02,2.636,4.306,4.306,0,0,1-3.99-2.651,4.544,4.544,0,0,1,.2,2.5,4.405,4.405,0,0,1-1.19,2.211,4.312,4.312,0,0,1-4.69.95,4.429,4.429,0,0,1,1.91,1.626,4.368,4.368,0,0,1,0,4.805,4.3,4.3,0,0,1-1.93,1.6,4.422,4.422,0,0,1,4.71.988,4.28,4.28,0,0,1,1.18,2.206,4.338,4.338,0,0,1-.23,2.493,4.407,4.407,0,0,1,4.03-2.636,4.3,4.3,0,0,1,3.98,2.652,4.546,4.546,0,0,1-.2-2.5,4.482,4.482,0,0,1,1.19-2.212,4.312,4.312,0,0,1,4.69-.95l0.84,0.315,0.85,0.368a1.846,1.846,0,0,1-2.38,1.029,2.5,2.5,0,0,0-1.43-.135,2.444,2.444,0,0,0-1.26.679,2.415,2.415,0,0,0-.68,1.267,2.5,2.5,0,0,0,.13,1.431,1.862,1.862,0,0,1-1.03,2.386,1.863,1.863,0,0,1-1.4.009,1.886,1.886,0,0,1-1.02-.969,2.451,2.451,0,0,0-.91-1.1,2.476,2.476,0,0,0-3.66,1.1,1.831,1.831,0,0,1-1.69,1.106,1.894,1.894,0,0,1-1.73-1.122,1.861,1.861,0,0,1-.03-1.41,2.588,2.588,0,0,0,.14-1.43,2.559,2.559,0,0,0-.68-1.267,2.494,2.494,0,0,0-2.7-.546,1.86,1.86,0,0,1-1.4-.035,1.869,1.869,0,0,1-.02-3.418,2.491,2.491,0,0,0,0-4.582,1.867,1.867,0,0,1-.96-2.417,1.9,1.9,0,0,1,.98-1,1.865,1.865,0,0,1,1.4-.035h0a2.491,2.491,0,0,0,2.7-.543,2.564,2.564,0,0,0,.68-1.267,2.5,2.5,0,0,0-.14-1.431,1.878,1.878,0,0,1,1.04-2.386,1.861,1.861,0,0,1,2.41.96,2.468,2.468,0,0,0,2.29,1.519,2.477,2.477,0,0,0,1.37-.414,2.544,2.544,0,0,0,.92-1.1,1.835,1.835,0,0,1,1.01-.969,1.863,1.863,0,0,1,1.4.009,1.862,1.862,0,0,1,1.03,2.386,2.5,2.5,0,0,0,.55,2.7,2.444,2.444,0,0,0,1.26.679,2.486,2.486,0,0,0,1.43-.134,1.859,1.859,0,0,1,1.4.035,1.872,1.872,0,0,1,.99,2.4A1.847,1.847,0,0,1,1207.86,135.193Z" transform="translate(-1186 -126)"/>
</svg>
