<svg xmlns="http://www.w3.org/2000/svg" width="30" height="30" viewBox="0 0 30 30">
  <defs>
    <style>
      .cls-1 {
        fill: #0073e0;
        fill-rule: evenodd;
      }
    </style>
  </defs>
  <path id="shift" class="cls-1" d="M113.5,471.289a11.634,11.634,0,0,1-7.252,4.484,11.977,11.977,0,0,1-11.784-4.386c-0.087-.111-0.2-0.206-0.355-0.37l-2.108,2.132v-4.778c0-1.329,0-1.329,1.359-1.329H98.2c-0.728.719-1.362,1.359-2.012,1.983a0.456,0.456,0,0,0-.068.744,9.612,9.612,0,0,0,5.872,3.735,9.207,9.207,0,0,0,5.944-.648,9.443,9.443,0,0,0,5.373-6.223,10.16,10.16,0,0,0,.365-2.952A9.6,9.6,0,0,0,112,458.516a0.421,0.421,0,0,1,.052-0.654c0.354-.359.686-0.74,1.009-1.127,0.213-.256.367-0.168,0.521,0.044a12.229,12.229,0,0,1,2.178,4.914,11.386,11.386,0,0,1,.239,2.441A11.907,11.907,0,0,1,113.5,471.289Zm0.954-16.432a41.009,41.009,0,0,0-6.858,8.568,34.932,34.932,0,0,0-2.153,4.045c-0.544,1.214-1.726,1.537-2.859,1.876-0.549.164-.669-0.329-0.782-0.7a19.483,19.483,0,0,0-2.591-5.391,16.492,16.492,0,0,0-1.067-1.359,0.265,0.265,0,0,1,.017-0.448,4.865,4.865,0,0,1,2.263-1.1c1.109-.216,1.659.584,2.222,1.312a16.137,16.137,0,0,1,1.458,2.272c1.275-1.736,2.485-3.4,3.867-4.952a19.643,19.643,0,0,1,4.154-3.621,7.875,7.875,0,0,1,2.764-1.1A0.881,0.881,0,0,1,114.458,454.857Zm-4.781,1.324a9.361,9.361,0,0,0-3.977-1.718,9.829,9.829,0,0,0-5.283.484,9.073,9.073,0,0,0-3.443,2.241,9.591,9.591,0,0,0-2.644,5.2,1.157,1.157,0,0,1-1.322,1.123,1.014,1.014,0,0,1-1-1.148,11.979,11.979,0,0,1,4.39-7.711,11.509,11.509,0,0,1,6.021-2.56,12.046,12.046,0,0,1,6.023.767,13.885,13.885,0,0,1,3.532,2.182,10.755,10.755,0,0,0-1.507,1.1A0.533,0.533,0,0,1,109.677,456.181Z" transform="translate(-89 -449)"/>
</svg>
