<svg xmlns="http://www.w3.org/2000/svg" width="27" height="27.031" viewBox="0 0 27 27.031">
  <defs>
    <style>
      .cls-1 {
        fill: #fffef4;
        fill-rule: evenodd;
      }
    </style>
  </defs>
  <path id="slab" class="cls-1" d="M1181.16,649.076c0.89-.7,1.75-1.369,2.6-2.035q4.92-3.828,9.84-7.66a0.5,0.5,0,0,1,.76-0.043q6.105,4.788,12.24,9.542a1.977,1.977,0,0,1,.24.214l-1.85,1.452-9.78,7.608c-0.31.241-.63,0.466-0.93,0.725a0.362,0.362,0,0,1-.56,0c-1.39-1.094-2.78-2.173-4.18-3.257l-8.1-6.312C1181.36,649.25,1181.28,649.181,1181.16,649.076Zm-0.02,7.253c0.75-.576,1.46-1.142,2.19-1.682a0.5,0.5,0,0,1,.4.1c1.27,0.977,2.54,1.965,3.81,2.952,2.05,1.6,4.11,3.189,6.15,4.8a0.4,0.4,0,0,0,.6,0q4.5-3.513,9-7.013c0.34-.265.68-0.541,1.03-0.788a0.4,0.4,0,0,1,.36-0.042c0.72,0.538,1.43,1.1,2.18,1.68-0.88.683-1.71,1.342-2.56,2q-4.95,3.853-9.89,7.71a0.54,0.54,0,0,1-.8.01q-6.045-4.736-12.12-9.444C1181.38,656.523,1181.28,656.441,1181.14,656.329Zm17.8-7.768h-4.03v-4.128h-2.11v4.128h-4.03v1.914h4.03V654.6h2.11v-4.127h4.03v-1.914Z" transform="translate(-1180.5 -639.188)"/>
</svg>
