<svg xmlns="http://www.w3.org/2000/svg" width="30" height="30" viewBox="0 0 30 30">
  <defs>
    <style>
      .cls-1 {
        fill: #0073e0;
        fill-rule: evenodd;
      }
    </style>
  </defs>
  <path id="storeName" class="cls-1" d="M114.566,235.173c-1.673-1.9-3.294-3.846-4.917-5.789A0.986,0.986,0,0,0,108.8,229q-7.8.016-15.611,0a0.985,0.985,0,0,0-.845.4c-1.626,1.941-3.246,3.887-4.918,5.789a1.558,1.558,0,0,0-.353,1.534,3.166,3.166,0,0,0,2,2.35,0.806,0.806,0,0,1,.594.939c-0.019,3.528.007,10.771-.027,14.3-0.006.593,0.172,0.7,0.73,0.691,3.547-.026,7.094-0.014,10.641-0.014,3.522,0,7.043-.015,10.564.015,0.617,0.006.821-.1,0.814-0.763-0.04-3.5-.011-10.721-0.028-14.224a0.814,0.814,0,0,1,.588-0.95,3.18,3.18,0,0,0,1.991-2.36A1.558,1.558,0,0,0,114.566,235.173Zm-10.959-5.39h0.81c0.985-.3,1.555.249,2,1.276,0.653,1.507,1.438,2.962,2.226,4.407a1.612,1.612,0,0,1,.02,1.576,2.591,2.591,0,0,1-2.69,1.5,2.651,2.651,0,0,1-2.32-2.3c-0.284-1.821-.576-3.642-0.89-5.459C102.587,229.779,102.564,229.783,103.607,229.783ZM93.3,235.605c0.907-1.784,1.832-3.559,2.715-5.354a0.744,0.744,0,0,1,.828-0.476,12.756,12.756,0,0,0,1.781,0c0.607-.055.79,0.118,0.674,0.723-0.319,1.662-.593,3.333-0.881,5a11.611,11.611,0,0,1-.212,1.268,2.6,2.6,0,0,1-2.491,1.814,2.683,2.683,0,0,1-2.613-2.26A1.17,1.17,0,0,1,93.3,235.605Zm17.5,8.33c0.03,0.641-.107.857-0.827,0.846-3-.048-6.006-0.02-9.009-0.02-2.978,0-5.955-.013-8.932.011-0.573,0-.82-0.09-0.793-0.733,0.056-1.368.026-2.741,0.011-4.111a0.7,0.7,0,0,1,.528-0.846,4.606,4.606,0,0,1,2.571.006,3.343,3.343,0,0,0,3.557-.494,0.547,0.547,0,0,1,.871-0.041,3.362,3.362,0,0,0,4.459,0,0.511,0.511,0,0,1,.807,0,3.384,3.384,0,0,0,4.522-.038c0.268-.212.426-0.3,0.689-0.019a1.373,1.373,0,0,0,.624.434c0.921,0.208.957,0.825,0.921,1.583C110.741,241.649,110.743,242.8,110.8,243.935Z" transform="translate(-86 -227)"/>
</svg>
