<svg xmlns="http://www.w3.org/2000/svg" width="30" height="22" viewBox="0 0 30 22">
  <defs>
    <style>
      .cls-1 {
        fill: #0073e0;
        fill-rule: evenodd;
      }
    </style>
  </defs>
  <path id="Truck" class="cls-1" d="M730.4,542.1a3.906,3.906,0,0,1-7.812,0h-7.812a3.906,3.906,0,0,1-7.812,0h-2.6v-5.733a7.966,7.966,0,0,0,5.568,2.359,7.807,7.807,0,0,0,5.316-13.538h9.948v5.2h3.906l3.906,5.2v6.5h-2.6Zm-19.53-1.951a1.952,1.952,0,1,0,1.953,1.951A1.949,1.949,0,0,0,710.866,540.146Zm13.671,1.951a1.953,1.953,0,1,0,1.953-1.951A1.95,1.95,0,0,0,724.537,542.1Zm3.906-9.757h-3.255v3.252H731Zm-18.6,5.368a6.855,6.855,0,1,1,6.887-6.831A6.853,6.853,0,0,1,709.842,537.708Zm0.019-12.617a5.756,5.756,0,1,0,5.774,5.76A5.777,5.777,0,0,0,709.861,525.091Zm3.391,4.21q-1.989,1.893-3.987,3.778a0.6,0.6,0,0,1-.95-0.016q-1.025-1.042-2.029-2.105a0.574,0.574,0,1,1,.8-0.8c0.513,0.517,1.029,1.031,1.521,1.568,0.174,0.19.26,0.157,0.422,0,1.1-1.056,2.2-2.1,3.3-3.15a1.34,1.34,0,0,1,.381-0.288,0.557,0.557,0,0,1,.794.525A0.635,0.635,0,0,1,713.252,529.3Z" transform="translate(-703 -524)"/>
</svg>
