<svg xmlns="http://www.w3.org/2000/svg" width="24" height="23.994" viewBox="0 0 227.058 227">
  <defs>
    <style>
      .cls-1 {
        fill: #0090ff;
        fill-rule: evenodd;
      }
    </style>
  </defs>
  <path id="user" class="cls-1" d="M497.96,193a58.2,58.2,0,0,1,41.29,17.141,58.932,58.932,0,0,1,17.155,41.5v36.892a28.172,28.172,0,0,1-2.2,10.872,27.888,27.888,0,0,1-6.213,9.156L537.6,319v9.51a9.369,9.369,0,0,0,2.025,5.688,9.239,9.239,0,0,0,5.031,3.254,65.388,65.388,0,0,1,35.5,23.346A66.123,66.123,0,0,1,594,401.162v9.384a9.484,9.484,0,0,1-2.73,6.672,9.379,9.379,0,0,1-6.653,2.775H415.407a9.369,9.369,0,0,1-6.653-2.775A9.481,9.481,0,0,1,406,410.534V401.15a66.123,66.123,0,0,1,13.834-40.361,65.388,65.388,0,0,1,35.5-23.346,9.248,9.248,0,0,0,5.031-3.254,9.373,9.373,0,0,0,2.012-5.688v-9.51l-10.5-10.557a27.981,27.981,0,0,1-8.288-19.928v-39.1a57.287,57.287,0,0,1,16.011-39.1A56.628,56.628,0,0,1,497.96,193m67.349,179.352A46.527,46.527,0,0,0,540,355.769a28.05,28.05,0,0,1-15.231-9.989l-24.335,26.562-25.154-26.574a28.077,28.077,0,0,1-15.23,9.989,46.617,46.617,0,0,0-25.317,16.586,47.094,47.094,0,0,0-9.9,28.718H575.244a47.045,47.045,0,0,0-9.973-28.693Z" transform="translate(-386.471 -193)"/>
</svg>
