<svg xmlns="http://www.w3.org/2000/svg" width="19" height="18" viewBox="0 0 19 18">
  <defs>
    <style>
      .cls-1 {
        fill: #0073df;
        fill-rule: evenodd;
      }
    </style>
  </defs>
  <path id="Shape_44_1" data-name="Shape 44 1" class="cls-1" d="M807.052,468.288a1.251,1.251,0,0,0,.039.823,4.624,4.624,0,0,0,1.146,1.727,1.348,1.348,0,0,0,.525.289,3.507,3.507,0,0,0,.78.132c0.563,0.046,1.128.077,1.692,0.115a3.947,3.947,0,0,0,.753,0c0.063-.008.125-0.015,0.187-0.026a0.245,0.245,0,0,0,.18-0.124c0.019-.034.037-0.067,0.053-0.1a4.391,4.391,0,0,1,.614-0.958,3.445,3.445,0,0,0,.409-0.64c0.075-.144.028-0.194-0.094-0.208-0.05,0-.1-0.007-0.15-0.014a2.141,2.141,0,0,1-.509-0.137,1.53,1.53,0,0,1-.205-0.1,0.5,0.5,0,0,1-.277-0.385,1.05,1.05,0,0,0-.02-0.112,0.382,0.382,0,0,0-.113-0.195c-0.083-.077-0.168-0.153-0.248-0.234a0.725,0.725,0,0,1-.213-0.4,2.7,2.7,0,0,1,.041-1.135,0.906,0.906,0,0,1,.265-0.453,3.33,3.33,0,0,1,.356-0.281c0.322-.221.649-0.435,0.975-0.652a0.114,0.114,0,0,0,.047-0.13,4.679,4.679,0,0,1-.229-0.686,0.362,0.362,0,0,0-.15-0.21,1.417,1.417,0,0,0-1.222-.211,0.684,0.684,0,0,0-.108.036,3.837,3.837,0,0,1-1.141.232,2.258,2.258,0,0,0-.482.08c-0.166.051-.169,0.052-0.125,0.238a0.453,0.453,0,0,1,.007.074,0.109,0.109,0,0,1-.112.079,0.825,0.825,0,0,1-.1-0.038c-0.067-.033-0.131-0.076-0.2-0.1a0.378,0.378,0,0,0-.295,0,1.656,1.656,0,0,0-.2.1,6.517,6.517,0,0,0-.965.666,3.42,3.42,0,0,0-.654.735,2.671,2.671,0,0,0-.179.334,0.394,0.394,0,0,0-.01.3c0.048,0.145.1,0.29,0.147,0.433a0.739,0.739,0,0,1-.007.522C807.178,467.875,807.112,468.081,807.052,468.288Zm2.509-6.188a2.58,2.58,0,0,0,.486,1.021c0.168,0.206.326,0.42,0.49,0.629a0.97,0.97,0,0,0,.157.163,0.209,0.209,0,0,0,.137.05,1.98,1.98,0,0,0,.333-0.056c0.133-.035.264-0.081,0.395-0.125a1.976,1.976,0,0,1,.858-0.058,1.489,1.489,0,0,1,.49.189,0.2,0.2,0,0,0,.072.017,0.043,0.043,0,0,0,.028-0.022,1.654,1.654,0,0,0,.08-0.171,8.207,8.207,0,0,1,.525-1.139,2.619,2.619,0,0,1,.376-0.523,0.539,0.539,0,0,1,.255-0.156,2.827,2.827,0,0,1,1.742.058,2.039,2.039,0,0,1,.429.236,0.056,0.056,0,0,0,.083-0.04l0.033-.57h-0.015c0-.1,0-0.2,0-0.3a1.884,1.884,0,0,0-.193-0.847,2.606,2.606,0,0,1-.2-0.655c-0.013-.062-0.02-0.125-0.03-0.188a1.342,1.342,0,0,0-.48-0.839,2.4,2.4,0,0,0-.558-0.385,0.359,0.359,0,0,0-.217-0.051,1.087,1.087,0,0,1-.41-0.03,2.712,2.712,0,0,0-.449-0.045,3.953,3.953,0,0,1-.712-0.064,0.2,0.2,0,0,0-.145.012,0.234,0.234,0,0,1-.28.009,0.7,0.7,0,0,0-.3-0.052c-0.478,0-.955-0.01-1.432-0.012-0.113,0-.226.007-0.339,0.017a0.231,0.231,0,0,0-.224.172,1.245,1.245,0,0,1-.165.34,1,1,0,0,0-.114.279,0.667,0.667,0,0,1-.318.408l-0.16.1a0.845,0.845,0,0,0-.375.592,2.649,2.649,0,0,0-.051.569A7.456,7.456,0,0,0,809.561,462.1Zm6.115,0.031a2.71,2.71,0,0,0-1.339.01,0.339,0.339,0,0,0-.19.116,3.085,3.085,0,0,0-.271.363,7.534,7.534,0,0,0-.542,1.127,0.878,0.878,0,0,0-.07.371,2.237,2.237,0,0,0,.259.906,0.568,0.568,0,0,0,.15.167,1.364,1.364,0,0,0,.39.227,2.815,2.815,0,0,1,.813.467,0.115,0.115,0,0,0,.168-0.008,0.5,0.5,0,0,0,.188-0.231c0.031-.083.06-0.167,0.092-0.249,0.049-.127.126-0.155,0.232-0.084,0.073,0.049.142,0.1,0.217,0.151a0.192,0.192,0,0,0,.18.017,0.234,0.234,0,0,0,.083-0.067,0.158,0.158,0,0,0,.015-0.074,0.334,0.334,0,0,1,.193-0.262,2.285,2.285,0,0,1,.444-0.2,0.082,0.082,0,0,0,.07-0.11c-0.018-.074-0.034-0.149-0.056-0.222a1.3,1.3,0,0,1-.016-0.676c0.024-.112.051-0.223,0.075-0.334,0.016-.074.035-0.148,0.044-0.224a0.494,0.494,0,0,0-.087-0.361c-0.044-.061-0.088-0.123-0.137-0.18-0.066-.077-0.139-0.147-0.2-0.225A1.237,1.237,0,0,0,815.676,462.131Zm1.381,0.765a7.324,7.324,0,0,1,.825-0.6,5.052,5.052,0,0,1,.461-0.256,0.83,0.83,0,0,1,.364-0.087c0.163,0,.326-0.009.489-0.007a0.462,0.462,0,0,1,.367.165,1.557,1.557,0,0,0,.448.342,1.685,1.685,0,0,1,.217.151,0.852,0.852,0,0,1,.306.424c0.066,0.219.129,0.438,0.182,0.66a0.819,0.819,0,0,1-.007.378c-0.031.136-.059,0.272-0.083,0.41a0.066,0.066,0,0,0,.044.045,0.554,0.554,0,0,0,.142-0.043,1.728,1.728,0,0,1,.991-0.159,1.025,1.025,0,0,0,.711-0.18,1.741,1.741,0,0,0,.656-0.718,5.528,5.528,0,0,0,.438-1.213,2.713,2.713,0,0,0,.061-0.491,1.7,1.7,0,0,0-.247-0.981q-0.306-.5-0.611-1.007c-0.093-.151-0.186-0.3-0.282-0.45a2.068,2.068,0,0,0-.159-0.213,0.387,0.387,0,0,0-.22-0.138c-0.037-.007-0.074-0.014-0.11-0.024a0.441,0.441,0,0,1-.273-0.189,0.841,0.841,0,0,0-.426-0.3,0.581,0.581,0,0,0-.221-0.031c-0.113,0-.226.008-0.339,0.014a1.066,1.066,0,0,1-.613-0.15c-0.054-.032-0.111-0.059-0.164-0.092a1.12,1.12,0,0,0-.944-0.1,3.4,3.4,0,0,0-.356.123,7.654,7.654,0,0,0-1.106.57,1.865,1.865,0,0,0-.157.1,0.892,0.892,0,0,0-.333.493,6.359,6.359,0,0,0-.131.75c-0.06.414-.1,0.832-0.167,1.245a5.691,5.691,0,0,0-.067.758,0.769,0.769,0,0,1,0,.152,0.7,0.7,0,0,0,.25.642A0.068,0.068,0,0,0,817.057,462.9Zm4.663,1.644a1.563,1.563,0,0,0-.631.086,1.13,1.13,0,0,0-.141.052c-0.137.063-.273,0.129-0.409,0.194-0.083.111-.163,0.225-0.25,0.333-0.151.187-.306,0.37-0.46,0.555a0.12,0.12,0,0,0-.058.128,0.136,0.136,0,0,0,.1.038,1.053,1.053,0,0,1,.516.216,2.826,2.826,0,0,1,.479.428,1.182,1.182,0,0,1,.307.8q0,0.363,0,.725a0.708,0.708,0,0,1-.126.431,0.689,0.689,0,0,0-.074.173,0.568,0.568,0,0,1-.287.337,0.6,0.6,0,0,0-.3.276,0.7,0.7,0,0,1-.512.353,2.084,2.084,0,0,1-.262.033c-0.1.008-.2,0.011-0.3,0.01-0.326,0-.352.018-0.168,0.333a2.15,2.15,0,0,0,.467.593,3.048,3.048,0,0,1,.239.243l0.182,0.193a1.737,1.737,0,0,0,1.163.567c0.539,0.038,1.075.115,1.617,0.1,0.188,0,.377.006,0.565,0a1.762,1.762,0,0,0,.861-0.246c0.141-.084.289-0.155,0.432-0.235,0.088-.049.175-0.1,0.259-0.155a0.7,0.7,0,0,0,.322-0.494,2.273,2.273,0,0,1,.356-0.914,2.959,2.959,0,0,0,.334-0.724,1.348,1.348,0,0,0,.034-0.715c-0.063-.285-0.13-0.569-0.205-0.852a3.849,3.849,0,0,0-.149-0.431,1.177,1.177,0,0,0-.24-0.385c-0.286-.3-0.575-0.6-0.857-0.913a1.7,1.7,0,0,0-.548-0.4,9.568,9.568,0,0,0-1.729-.645A3.547,3.547,0,0,0,821.72,464.54ZM816.028,466a0.783,0.783,0,0,0-.344-0.1,0.769,0.769,0,0,0-.607.278,0.111,0.111,0,0,0,0,.138,1.3,1.3,0,0,0,.114.1,0.144,0.144,0,0,0,.173.025l0.033-.017a1.788,1.788,0,0,1,.643-0.193,0.077,0.077,0,0,0,.074-0.073,0.224,0.224,0,0,0-.028-0.1A0.141,0.141,0,0,0,816.028,466Zm0,0.714a0.083,0.083,0,0,0-.049-0.051,0.463,0.463,0,0,0-.292.009,0.2,0.2,0,0,0-.131.126,1.465,1.465,0,0,0-.072.29,0.306,0.306,0,0,0,.164.312,0.132,0.132,0,0,0,.139,0,0.5,0.5,0,0,0,.256-0.429V466.8A0.4,0.4,0,0,0,816.024,466.718Zm0.062,1.083a0.137,0.137,0,0,0-.057-0.047c-0.022-.015-0.062.018-0.075,0.061s-0.026.1-.04,0.147-0.034.122-.052,0.183c-0.011.036-.022,0.073-0.035,0.108a0.988,0.988,0,0,1-.431.558,0.246,0.246,0,0,0-.13.217c0,0.051-.007.1-0.016,0.227a1.169,1.169,0,0,0,.058.339,3.456,3.456,0,0,0,.436.967,0.685,0.685,0,0,0,.045.061,0.458,0.458,0,0,0,.309.2,0.517,0.517,0,0,1,.3.148c0.074,0.068.154,0.13,0.233,0.192a0.09,0.09,0,0,0,.105.019c0.2-.125.407-0.25,0.608-0.379a0.565,0.565,0,0,0,.072-0.087,0.188,0.188,0,0,1,.085-0.069,2.594,2.594,0,0,0,.462-0.247,0.263,0.263,0,0,0,.109-0.1,0.744,0.744,0,0,0,.128-0.685c-0.074-.229-0.149-0.457-0.207-0.692a1.024,1.024,0,0,0-.125-0.276c-0.216-.357-0.437-0.712-0.657-1.067a0.076,0.076,0,0,0-.025-0.028,0.387,0.387,0,0,0-.1-0.048,0.134,0.134,0,0,0-.092.106,0.718,0.718,0,0,0-.023.15,0.419,0.419,0,0,1-.308.427,0.35,0.35,0,0,1-.386-0.063A0.6,0.6,0,0,1,816.086,467.8Zm0.518-.663a0.084,0.084,0,0,0-.05-0.049,0.065,0.065,0,0,0-.061.021,1.6,1.6,0,0,0-.136.686,0.266,0.266,0,0,0,.052.111,0.155,0.155,0,0,0,.232.016,0.073,0.073,0,0,0,.026-0.12,0.136,0.136,0,0,0-.032-0.021,0.15,0.15,0,0,1-.08-0.157c0.013-.125.036-0.25,0.052-0.375A0.349,0.349,0,0,0,816.6,467.138Zm-0.223-.457a0.316,0.316,0,0,0,.238.164c0.05,0,.1.006,0.173,0.01a1.853,1.853,0,0,0,.2-0.036,0.164,0.164,0,0,0,.117-0.135,0.168,0.168,0,0,0-.068-0.167,0.555,0.555,0,0,0-.6-0.059A0.149,0.149,0,0,0,816.381,466.681Zm0.309-.951a0.131,0.131,0,0,0-.1.023c-0.057.108-.1,0.222-0.149,0.326a0.109,0.109,0,0,0,.025.04,0.1,0.1,0,0,0,.063.019,0.327,0.327,0,0,0,.209-0.281,0.163,0.163,0,0,0-.007-0.073A0.087,0.087,0,0,0,816.69,465.73Zm0.012-.6a0.581,0.581,0,0,0-.32.173,0.07,0.07,0,0,0,.021.062,0.43,0.43,0,0,0,.132.062,1.8,1.8,0,0,0,.191.029,1.43,1.43,0,0,0,.172.031,0.071,0.071,0,0,0,.052-0.041A0.237,0.237,0,0,0,816.7,465.131Zm3.2,0.188a1.775,1.775,0,0,0,.52-1.074c0.014-.062.03-0.123,0.046-0.185a0.829,0.829,0,0,0,0-.414c-0.042-.172-0.091-0.343-0.145-0.512a0.709,0.709,0,0,0-.266-0.36,1.853,1.853,0,0,0-.219-0.146,1.345,1.345,0,0,1-.415-0.322,0.4,0.4,0,0,0-.3-0.136c-0.025,0-.05,0-0.075,0a1.5,1.5,0,0,0-1.054.335c-0.189.125-.372,0.259-0.558,0.388a0.93,0.93,0,0,0-.362.516,2.017,2.017,0,0,0-.127.762,2.817,2.817,0,0,0,.086.7c0.046,0.162.168,0.282,0.211,0.442a0.464,0.464,0,0,0,.13.068,0.2,0.2,0,0,1,.165.135,1.911,1.911,0,0,0,.1.2,0.483,0.483,0,0,0,.182.188,0.991,0.991,0,0,1,.279.19,0.244,0.244,0,0,0,.334.05,1.945,1.945,0,0,1,.678-0.209,0.685,0.685,0,0,0,.4-0.2c0.1-.1.195-0.2,0.29-0.3C819.839,465.4,819.87,465.358,819.9,465.319Zm-2.432,1.122a0.122,0.122,0,0,0,.142-0.089,0.492,0.492,0,0,0-.007-0.184,1.329,1.329,0,0,0-.284-0.48,0.134,0.134,0,0,0-.1-0.017,0.1,0.1,0,0,0-.035.061,0.444,0.444,0,0,0-.009.081,1.241,1.241,0,0,0,.079.434A0.355,0.355,0,0,0,817.47,466.441Zm0.256,0.882a0.164,0.164,0,0,0,.073,0,0.354,0.354,0,0,0,.1-0.049,0.144,0.144,0,0,0-.013-0.14,0.4,0.4,0,0,0-.1-0.1,0.67,0.67,0,0,0-.394-0.087,0.076,0.076,0,0,0-.076.062,0.153,0.153,0,0,0,.017.069A0.632,0.632,0,0,0,817.726,467.323Zm2.962-.592a2.535,2.535,0,0,0-.514-0.445,0.721,0.721,0,0,0-.392-0.121,1.473,1.473,0,0,0-.447.054,1.469,1.469,0,0,1-.592.093,0.4,0.4,0,0,0-.182.039,2.063,2.063,0,0,1-.5.148,0.083,0.083,0,0,0-.037.124c0.029,0.042.06,0.081,0.092,0.12a0.19,0.19,0,0,1,.042.211,0.454,0.454,0,0,0,.006.261,0.321,0.321,0,0,1-.281.346c-0.1.011-.2,0-0.3,0.008-0.033,0-.044.022-0.034,0.054a0.37,0.37,0,0,0,.024.071,6.391,6.391,0,0,0,.579.846c0.166,0.19.312,0.4,0.468,0.6a0.606,0.606,0,0,0,.668.331h0.11c0.091-.007.216-0.013,0.341-0.025a0.533,0.533,0,0,0,.46-0.286,0.726,0.726,0,0,1,.357-0.326,0.338,0.338,0,0,0,.186-0.227,0.469,0.469,0,0,1,.069-0.175,0.63,0.63,0,0,0,.127-0.465c0-.191,0-0.382,0-0.572A0.963,0.963,0,0,0,820.688,466.731Zm-5.837-.3a0.337,0.337,0,0,1-.069-0.174,0.35,0.35,0,0,0-.174-0.277,1.979,1.979,0,0,0-.455-0.266,2.988,2.988,0,0,1-.541-0.267,0.237,0.237,0,0,0-.251-0.008,3.069,3.069,0,0,0-.292.173c-0.25.169-.5,0.342-0.747,0.513-0.021.014-.041,0.031-0.062,0.044a0.972,0.972,0,0,0-.439.72,2.47,2.47,0,0,0,0,.758,0.615,0.615,0,0,0,.165.335,1.83,1.83,0,0,0,.194.18,0.619,0.619,0,0,1,.228.382c0.007,0.038.018,0.074,0.024,0.112a0.277,0.277,0,0,0,.155.2,1.624,1.624,0,0,0,.6.2c0.112,0.013.226,0.016,0.338,0.023a2.217,2.217,0,0,0,.879-0.178,3.961,3.961,0,0,1,.641-0.216,0.865,0.865,0,0,0,.177-0.062,0.581,0.581,0,0,0,.3-0.281,1.516,1.516,0,0,0,.165-0.543,0.081,0.081,0,0,0-.094-0.088,0.471,0.471,0,0,0-.075,0,0.089,0.089,0,0,1-.092-0.053,2.225,2.225,0,0,1-.2-0.533,0.2,0.2,0,0,0-.136-0.167,0.861,0.861,0,0,1-.1-0.047,0.169,0.169,0,0,1-.08-0.122,0.277,0.277,0,0,1,0-.076A0.366,0.366,0,0,0,814.851,466.431Zm4.526,4.418c-0.136-.15-0.272-0.3-0.4-0.459a2.368,2.368,0,0,1-.453-0.87,0.479,0.479,0,0,0-.137-0.265,0.036,0.036,0,0,0-.031-0.007,0.037,0.037,0,0,0-.018.029c0.017,0.06.037,0.12,0.057,0.184a0.939,0.939,0,0,1,.009.7,0.66,0.66,0,0,1-.23.337,11.071,11.071,0,0,1-1.188.806c-0.331.194-.356,0.159-0.6-0.038-0.039-.031-0.082-0.06-0.118-0.1a0.417,0.417,0,0,0-.229-0.119,0.721,0.721,0,0,1-.479-0.342,3.6,3.6,0,0,1-.485-1.069,2.61,2.61,0,0,1-.047-0.416c0-.05,0-0.1,0-0.152a0.093,0.093,0,0,0-.122-0.1,1.2,1.2,0,0,0-.178.059,2.307,2.307,0,0,1-.675.231,1.334,1.334,0,0,0-.18.056,0.2,0.2,0,0,0-.113.094c-0.013.022-.026,0.044-0.037,0.067a4.824,4.824,0,0,1-.637.987,3.441,3.441,0,0,0-.489.811,1.286,1.286,0,0,0-.109.7,6.12,6.12,0,0,0,.248,1.191c0.044,0.132.1,0.262,0.152,0.389a1.442,1.442,0,0,0,.406.543c0.087,0.072.173,0.147,0.262,0.217a17.566,17.566,0,0,0,1.747,1.2,4.586,4.586,0,0,0,.961.433,0.79,0.79,0,0,0,.515.006,9.3,9.3,0,0,0,1.052-.415,2.906,2.906,0,0,0,.609-0.378c0.224-.184.451-0.366,0.662-0.564a4.04,4.04,0,0,0,.4-0.455,1.75,1.75,0,0,0,.349-0.752c0.074-.374.182-0.74,0.224-1.12a1.592,1.592,0,0,0,.018-0.228,1.06,1.06,0,0,0-.295-0.76C819.655,471.143,819.514,471,819.377,470.849Z" transform="translate(-807 -458)"/>
</svg>
