<svg xmlns="http://www.w3.org/2000/svg" width="30" height="30" viewBox="0 0 30 30">
  <defs>
    <style>
      .cls-1 {
        fill: #0071dc;
        fill-rule: evenodd;
      }
    </style>
  </defs>
  <path id="web" class="cls-1" d="M1839.33,166h-10.66c-3.69,0-6.67-2.634-6.67-5.882v-8.236c0-3.248,2.98-5.882,6.67-5.882h10.66c3.69,0,6.67,2.634,6.67,5.882v8.236C1846,163.366,1843.02,166,1839.33,166Zm4-14.118a3.786,3.786,0,0,0-4-3.529h-10.66a3.786,3.786,0,0,0-4,3.529v8.236a3.786,3.786,0,0,0,4,3.529h10.66a3.786,3.786,0,0,0,4-3.529v-8.236ZM1827.5,168h14a1.5,1.5,0,0,1,0,3h-14A1.5,1.5,0,0,1,1827.5,168Z" transform="translate(-1819 -143.5)"/>
</svg>
