<svg id="webwithtxt" xmlns="http://www.w3.org/2000/svg" width="81.53" height="25" viewBox="0 0 81.53 25">
  <defs>
    <style>
      .cls-1 {
        fill: #0071dc;
        fill-rule: evenodd;
      }
    </style>
  </defs>
  <path id="Web" class="cls-1" d="M1783.66,150.168l-3.32,12.86-3.31-12.86h-2.93l-3.57,12.929-3.29-12.929h-2.77l4.51,15.9,2.93-.023,3.54-12.016,3.34,12.016h2.95l4.71-15.876h-2.79Zm13.7,2.1v-2.124h-8.78v15.9h8.78v-2.125h-6.18v-4.865h5.49v-2.125h-5.49v-4.66h6.18Zm11.68,5.62a4.246,4.246,0,0,0,1.97-1.348,3.523,3.523,0,0,0,.73-2.284,3.788,3.788,0,0,0-.59-2.067,4.16,4.16,0,0,0-1.76-1.474,6.534,6.534,0,0,0-2.79-.548h-6.06v15.876h6.35a6.415,6.415,0,0,0,2.77-.56,4.287,4.287,0,0,0,1.82-1.53,3.922,3.922,0,0,0,.63-2.182,3.983,3.983,0,0,0-.89-2.535,3.529,3.529,0,0,0-2.18-1.348h0Zm-5.9-5.6h3.23a3.02,3.02,0,0,1,2,.606,2.074,2.074,0,0,1,.72,1.679,2.035,2.035,0,0,1-.72,1.679,3.105,3.105,0,0,1-2,.582h-3.23v-4.546Zm3.53,11.627h-3.53v-4.957h3.43a3.15,3.15,0,0,1,2.13.686,2.32,2.32,0,0,1,.8,1.85,2.215,2.215,0,0,1-.75,1.782,3.138,3.138,0,0,1-2.08.639h0Z" transform="translate(-1764.47 -146)"/>
  <path id="web-2" data-name="web" class="cls-1" d="M1839.33,166h-10.66c-3.69,0-6.67-2.634-6.67-5.882v-8.236c0-3.248,2.98-5.882,6.67-5.882h10.66c3.69,0,6.67,2.634,6.67,5.882v8.236C1846,163.366,1843.02,166,1839.33,166Zm4-14.118a3.786,3.786,0,0,0-4-3.529h-10.66a3.786,3.786,0,0,0-4,3.529v8.236a3.786,3.786,0,0,0,4,3.529h10.66a3.786,3.786,0,0,0,4-3.529v-8.236ZM1827.5,168h14a1.5,1.5,0,0,1,0,3h-14A1.5,1.5,0,0,1,1827.5,168Z" transform="translate(-1764.47 -146)"/>
</svg>
